<svg width="700" height="550" viewBox="0 0 700 550" fill="none" xmlns="http://www.w3.org/2000/svg">
<path d="M412.902 261.981L438.962 272.881C437.612 273.251 436.283 273.671 434.942 274.061L430.973 275.341C428.322 276.191 425.692 277.121 423.072 278.051C420.453 279.001 417.833 279.951 415.243 280.981C412.692 281.981 410.132 283.001 407.623 284.111C406.223 275.131 404.123 265.541 401.373 263.311L412.902 261.981Z" fill="black"/>
<path d="M438.962 272.881V291.401C434.143 293.641 423.342 297.181 409.712 301.241C409.712 301.241 409.002 292.981 407.623 284.131C410.272 283.391 412.902 282.561 415.502 281.701C418.152 280.851 420.783 279.921 423.402 278.991C426.022 278.041 428.643 277.091 431.232 276.061L435.112 274.521C436.393 273.971 437.692 273.461 438.962 272.881Z" fill="black"/>
<path d="M251.953 282.671C252.942 282.371 253.913 282.041 254.873 281.651L253.542 286.931C252.249 285.656 250.876 284.464 249.433 283.361C250.272 283.151 251.123 282.931 251.953 282.671Z" fill="black"/>
<path d="M340.462 302.891C326.552 300.651 288.502 288.271 281.652 283.061C276.612 279.221 270.842 272.931 270.092 257.931C268.993 264.761 267.863 271.591 266.702 278.421L266.662 278.661C267.513 278.181 268.43 277.828 269.382 277.611C270.453 277.338 271.562 277.25 272.662 277.351C271.725 277.935 270.692 278.351 269.612 278.581C268.639 278.826 267.634 278.92 266.632 278.861L263.902 294.711C266.392 296.401 268.862 298.101 271.302 299.851L275.142 302.591L278.952 305.381C281.493 307.241 284.042 309.081 286.542 311.001C289.042 312.911 291.572 314.771 294.052 316.721L294.062 316.731C294.117 316.782 294.156 316.848 294.172 316.921C296.092 316.371 298.033 315.861 299.962 315.331L306.132 313.751C310.252 312.711 314.382 311.751 318.502 310.751C322.652 309.821 326.783 308.851 330.932 307.971C335.082 307.081 339.232 306.211 343.412 305.451C339.332 306.611 335.212 307.671 331.102 308.711C326.993 309.761 322.852 310.711 318.732 311.721C314.592 312.641 310.462 313.611 306.312 314.501L300.082 315.811C298.112 316.191 296.152 316.591 294.182 316.951C294.182 316.961 294.202 316.971 294.202 316.981C294.562 321.011 294.902 325.041 295.142 329.081C294.512 325.141 293.982 321.191 293.472 317.231C290.942 315.441 288.472 313.581 285.972 311.761C283.422 309.921 280.922 308.001 278.412 306.111L274.642 303.261L270.922 300.361C268.552 298.531 266.212 296.651 263.892 294.751L263.092 299.411C263.072 299.524 263.008 299.624 262.914 299.689C262.821 299.755 262.705 299.781 262.592 299.761C262.568 299.759 262.544 299.753 262.522 299.741L251.682 295.971C251.573 295.93 251.483 295.85 251.427 295.748C251.372 295.645 251.356 295.525 251.382 295.411L253.502 287.071C251.65 286.059 249.873 284.916 248.182 283.651C246.852 284.611 245.542 285.581 244.202 286.531C242.742 287.541 241.302 288.581 239.822 289.581C241.182 288.431 242.562 287.311 243.942 286.181C245.222 285.131 246.522 284.111 247.822 283.081C247.832 283.007 247.856 282.936 247.892 282.871C247.122 279.911 246.442 276.931 245.732 273.951C244.982 270.871 244.292 267.771 243.622 264.671C242.922 261.571 242.252 258.471 241.632 255.351C240.982 252.241 240.382 249.131 239.822 246.001C240.682 249.061 241.502 252.131 242.262 255.211C243.062 258.281 243.802 261.371 244.522 264.461C245.262 267.551 245.982 270.641 246.642 273.741C247.292 276.681 247.952 279.621 248.552 282.571C249.622 282.321 250.692 282.091 251.772 281.901C252.812 281.721 253.852 281.581 254.912 281.491L256.082 276.901L260.842 258.391L260.852 258.361V258.351C261.45 256.734 261.921 255.072 262.262 253.381C262.653 251.736 262.642 250.022 262.232 248.381C261.981 247.602 261.525 246.904 260.912 246.361C260.59 246.091 260.249 245.844 259.892 245.621L259.332 245.251L259.042 245.011C259.002 245.001 258.973 244.971 258.862 244.931C257.184 244.549 255.479 244.298 253.762 244.181C246.802 243.551 239.812 243.181 232.832 242.801C236.322 242.851 239.822 242.951 243.322 243.081C246.822 243.211 250.312 243.351 253.812 243.621C254.682 243.691 255.562 243.771 256.432 243.871C257.331 243.941 258.222 244.095 259.092 244.331C259.237 244.377 259.372 244.448 259.493 244.541L259.712 244.721L260.252 245.061C260.641 245.293 261.012 245.554 261.362 245.841C262.079 246.454 262.618 247.249 262.922 248.141C263.401 249.897 263.452 251.742 263.072 253.521C262.748 255.257 262.28 256.963 261.672 258.621L257.012 277.131L252.392 295.231L262.332 298.751L266.142 278.321C267.432 271.501 268.749 264.685 270.092 257.871C269.87 251.308 270.333 244.739 271.472 238.271L253.162 236.351C251.318 236.182 249.571 235.445 248.162 234.241C246.664 234.022 245.178 233.722 243.712 233.341C243.332 233.251 242.952 233.151 242.572 233.031C242.382 232.971 242.192 232.911 241.993 232.841C241.97 232.831 241.946 232.825 241.922 232.821H241.892C241.825 232.829 241.758 232.842 241.692 232.861C240.986 233.082 240.303 233.37 239.652 233.721C238.272 234.391 236.912 235.131 235.533 235.831C234.162 236.561 232.762 237.251 231.342 237.911C233.781 235.945 236.418 234.239 239.212 232.821C239.942 232.451 240.705 232.153 241.493 231.931C241.621 231.906 241.751 231.893 241.882 231.891C242.04 231.9 242.195 231.934 242.342 231.991C242.502 232.071 242.683 232.131 242.852 232.201L243.942 232.601C245.332 233.091 246.723 233.611 248.102 234.181C246.652 232.801 245.612 230.571 246.223 226.931L247.152 202.241L243.402 201.471C243.402 201.471 240.643 202.091 246.092 186.351L254.802 161.301C254.802 161.301 220.592 165.521 219.352 166.761C218.112 168.001 226.542 251.561 238.203 291.481C238.203 291.481 291.262 329.421 294.482 330.661C296.052 331.251 325.462 324.201 357.592 315.731C357.592 315.731 354.362 305.131 340.462 302.891ZM228.322 185.521C227.512 180.601 226.732 175.681 226.052 170.741C227.132 175.611 228.112 180.501 229.072 185.391C230.033 190.281 230.912 195.191 231.832 200.091C232.672 205.001 233.562 209.911 234.362 214.831L235.552 222.211C235.912 224.681 236.302 227.141 236.632 229.611C236.082 227.181 235.592 224.741 235.062 222.301L233.602 214.961C232.642 210.071 231.772 205.161 230.852 200.261C230.012 195.351 229.122 190.451 228.322 185.521Z" fill="black"/>
<path d="M320.772 127.581C318.952 127.581 316.632 128.571 314.322 129.071C312.012 129.571 306.723 128.571 306.223 127.091C305.723 125.601 302.602 113.321 302.092 113.901C301.592 114.481 300.602 115.511 300.602 115.511C300.602 115.511 300.432 130.471 300.762 132.081C301.102 133.701 307.212 141.801 316.302 140.971C325.392 140.141 326.722 129.401 326.722 129.401C326.722 129.401 322.582 127.581 320.772 127.581ZM322.272 132.021C321.605 132.432 320.824 132.621 320.042 132.561C319.283 132.503 318.547 132.271 317.892 131.881C317.256 131.512 316.712 131.003 316.302 130.391C317.489 131.006 318.776 131.405 320.102 131.571C320.723 131.618 321.347 131.533 321.932 131.321C322.567 131.075 323.173 130.764 323.743 130.391C323.424 131.068 322.912 131.635 322.272 132.021Z" fill="black"/>
<path d="M300.602 115.516C300.602 115.516 308.867 107.746 308.206 98.1589C308.206 98.1589 310.355 96.1753 313.826 99.4813C313.826 99.4813 316.801 100.308 320.273 96.6712C323.744 93.0345 325.562 98.3242 325.562 98.3242C325.562 98.3242 327.381 103.944 327.877 102.457C328.373 100.969 329.199 93.861 321.761 91.5468C315.976 89.8237 309.929 89.1518 303.908 89.5632C301.924 89.8938 297.792 93.1998 297.792 97.8283C297.792 102.457 295.808 108.242 295.973 110.061C296.139 111.879 300.602 115.516 300.602 115.516Z" fill="black"/>
<path d="M308.041 113.532C309.644 112.919 311.365 112.678 313.074 112.827C313.935 112.901 314.782 113.085 315.594 113.376C316.403 113.674 317.148 114.119 317.793 114.689C317.031 114.359 316.243 114.092 315.437 113.89C314.64 113.707 313.831 113.581 313.016 113.513C311.359 113.399 309.696 113.406 308.041 113.532Z" fill="black"/>
<path d="M322.091 113.902C322.754 113.176 323.57 112.606 324.481 112.235C325.384 111.808 326.401 111.683 327.381 111.879C326.487 112.164 325.608 112.495 324.747 112.87C323.885 113.224 323.036 113.609 322.091 113.902Z" fill="black"/>
<path d="M314.322 117.045C314.59 117.036 314.843 116.923 315.03 116.73C315.216 116.537 315.32 116.28 315.32 116.012C315.32 115.744 315.216 115.486 315.03 115.293C314.843 115.101 314.59 114.988 314.322 114.979C314.054 114.988 313.8 115.101 313.614 115.293C313.428 115.486 313.324 115.744 313.324 116.012C313.324 116.28 313.428 116.537 313.614 116.73C313.8 116.923 314.054 117.036 314.322 117.045Z" fill="black"/>
<path d="M324.901 116.384C325.169 116.374 325.423 116.262 325.609 116.069C325.795 115.876 325.899 115.619 325.899 115.351C325.899 115.083 325.795 114.825 325.609 114.632C325.423 114.44 325.169 114.327 324.901 114.317C324.633 114.327 324.38 114.44 324.193 114.632C324.007 114.825 323.903 115.083 323.903 115.351C323.903 115.619 324.007 115.876 324.193 116.069C324.38 116.262 324.633 116.374 324.901 116.384Z" fill="black"/>
<path d="M295.973 110.061C295.612 110.211 295.289 110.441 295.028 110.732C294.767 111.024 294.576 111.371 294.467 111.747C294.258 112.49 294.26 113.276 294.471 114.018C294.952 115.535 295.519 117.025 296.17 118.478C296.751 119.997 297.21 121.561 297.542 123.154C297.675 123.902 298.045 124.587 298.597 125.109C298.892 125.366 299.238 125.556 299.612 125.669C299.986 125.782 300.38 125.815 300.767 125.765C300.366 125.882 299.943 125.907 299.531 125.839C299.119 125.771 298.727 125.612 298.384 125.372C297.71 124.833 297.231 124.089 297.021 123.252C296.617 121.712 296.118 120.198 295.526 118.72C295.251 117.969 294.969 117.219 294.669 116.476C294.339 115.72 294.099 114.928 293.953 114.116C293.786 113.285 293.855 112.424 294.152 111.63C294.31 111.243 294.558 110.899 294.875 110.627C295.191 110.354 295.568 110.16 295.973 110.061Z" fill="black"/>
<path d="M322.918 121.301C323.312 122.347 323.3 123.503 322.884 124.54C322.654 125.095 322.228 125.546 321.686 125.806C321.154 126.019 320.561 126.024 320.025 125.82C320.522 125.757 321 125.591 321.43 125.333C321.798 125.058 322.082 124.688 322.254 124.262C322.599 123.307 322.822 122.312 322.918 121.301Z" fill="black"/>
<path d="M327.877 102.457C327.736 104.727 327.732 107.003 327.863 109.273C327.932 110.399 328.061 111.521 328.252 112.632C328.453 113.723 328.77 114.841 328.962 115.98C329.35 118.268 329.325 120.608 328.888 122.888C328.412 125.133 327.685 127.319 326.719 129.401C327.431 127.244 327.981 125.037 328.365 122.798C328.712 120.574 328.684 118.308 328.283 116.093C328.117 114.98 327.828 113.893 327.635 112.738C327.447 111.6 327.347 110.449 327.336 109.296C327.293 107.004 327.474 104.714 327.877 102.457Z" fill="black"/>
<path d="M300.767 132.083C300.63 133.406 300.137 134.666 299.341 135.731C298.935 136.272 298.438 136.737 297.871 137.106C297.297 137.461 296.638 137.655 295.964 137.667C296.536 137.407 297.071 137.073 297.555 136.671C298.011 136.262 298.425 135.808 298.791 135.317C299.164 134.818 299.508 134.297 299.821 133.758C300.135 133.212 300.459 132.661 300.767 132.083Z" fill="black"/>
<path d="M300.119 133.849C295.095 134.869 290.179 136.362 285.437 138.307C282.978 139.2 280.407 139.747 277.798 139.931C275.263 140.079 272.738 140.369 270.235 140.8C269.67 140.923 269.129 141.134 268.629 141.425C268.055 141.781 267.451 142.083 266.822 142.329C265.679 142.754 264.625 143.389 263.717 144.203C261.983 146.007 260.558 148.084 259.498 150.351C258.898 151.469 258.418 152.654 257.89 153.814C257.413 154.998 256.933 156.184 256.485 157.383C256.063 158.591 255.615 159.792 255.213 161.009L254.065 164.68L254.063 164.689L254.058 164.703C251.667 170.685 249.494 176.75 247.54 182.898C246.572 185.969 245.657 189.058 244.876 192.171C244.491 193.728 244.128 195.29 243.856 196.854C243.717 197.626 243.622 198.405 243.571 199.187C243.549 199.558 243.555 199.93 243.589 200.3C243.597 200.559 243.675 200.811 243.814 201.029L243.53 200.884C249.21 202 254.894 203.113 260.585 204.164L269.116 205.755L273.385 206.476C274.771 206.717 276.168 206.888 277.571 206.989L277.985 206.994C277.986 206.971 277.975 206.996 278 206.98C278.029 206.952 278.06 206.927 278.095 206.906C278.284 206.686 278.442 206.44 278.564 206.177C278.855 205.557 279.096 204.914 279.284 204.256C279.667 202.884 279.975 201.493 280.204 200.088C280.685 197.26 280.942 194.388 281.141 191.513C281.322 188.636 281.381 185.752 281.317 182.862C281.275 179.974 281.104 177.085 280.78 174.208C280.778 174.19 280.784 174.172 280.795 174.158C280.805 174.145 280.821 174.135 280.839 174.133C280.857 174.13 280.874 174.135 280.889 174.145C280.903 174.155 280.913 174.171 280.917 174.188C281.401 177.048 281.735 179.936 281.939 182.835C282.117 185.736 282.17 188.643 282.097 191.556C282.026 194.473 281.786 197.383 281.38 200.272C281.178 201.732 280.893 203.179 280.529 204.606C280.337 205.345 280.084 206.068 279.774 206.765C279.598 207.163 279.364 207.532 279.079 207.86C278.977 207.954 278.866 208.046 278.755 208.132C278.606 208.222 278.445 208.292 278.277 208.341C278.043 208.364 277.832 208.363 277.608 208.37C276.121 208.283 274.64 208.114 273.171 207.864L268.869 207.159C266.012 206.654 263.157 206.148 260.313 205.586C254.627 204.452 248.951 203.277 243.285 202.062L243.238 202.052C243.146 202.032 243.064 201.985 243.001 201.916C242.636 201.501 242.43 200.97 242.419 200.417C242.388 199.983 242.39 199.548 242.426 199.114C242.498 198.289 242.617 197.469 242.782 196.657C243.096 195.051 243.503 193.479 243.954 191.923C244.853 188.811 245.88 185.748 246.938 182.698C248.014 179.654 249.096 176.616 250.211 173.588L253.585 164.518L253.578 164.54C254.865 159.54 256.538 154.647 258.582 149.905C259.608 147.465 261.076 145.237 262.912 143.331C263.912 142.414 265.073 141.69 266.338 141.197C266.903 140.969 267.452 140.7 267.978 140.391C268.592 140.037 269.258 139.784 269.952 139.64C272.516 139.228 275.102 138.965 277.697 138.852C278.966 138.74 280.23 138.605 281.472 138.377C282.715 138.186 283.939 137.883 285.128 137.471C289.957 135.647 294.979 134.386 300.097 133.713C300.115 133.711 300.133 133.715 300.148 133.726C300.163 133.737 300.172 133.753 300.175 133.772C300.177 133.789 300.172 133.807 300.162 133.821C300.151 133.835 300.136 133.845 300.119 133.849Z" fill="black"/>
<path d="M316.336 148.18C316.223 148.781 316.194 149.396 316.251 150.005C316.287 150.622 316.327 151.238 316.386 151.853L316.763 155.543C317.035 158.002 317.358 160.455 317.658 162.911L318.137 166.591C318.438 167.886 318.24 169.246 317.582 170.401C317.366 170.675 317.098 170.905 316.792 171.075C316.487 171.246 316.151 171.354 315.804 171.395C315.457 171.435 315.105 171.407 314.769 171.311C314.433 171.215 314.119 171.054 313.845 170.837C313.571 170.622 313.343 170.353 313.177 170.048C313.01 169.742 312.908 169.405 312.877 169.058L312.678 167.213C312.401 164.755 312.107 162.298 311.732 159.855C311.553 158.635 311.31 157.425 311.003 156.23C310.928 155.939 310.824 155.656 310.694 155.385C310.668 155.325 310.628 155.272 310.578 155.23C310.528 155.187 310.469 155.157 310.405 155.141L309.98 154.958C309.413 154.713 308.839 154.483 308.262 154.259C305.957 153.361 303.635 152.503 301.292 151.716C300.131 151.348 298.924 150.823 297.807 151.19C297.289 151.44 296.858 151.841 296.572 152.34C296.286 152.84 296.159 153.415 296.207 153.988C296.206 154.053 296.179 154.115 296.133 154.16C296.086 154.206 296.023 154.23 295.958 154.229C295.916 154.228 295.874 154.217 295.838 154.195C295.801 154.173 295.771 154.142 295.749 154.106C295.1 152.977 294.37 151.897 293.564 150.873C292.785 149.847 291.874 148.928 290.854 148.141C290.355 147.766 289.798 147.476 289.204 147.282C288.553 147.076 287.926 146.798 287.336 146.453C286.133 145.766 285.117 144.794 284.375 143.624C284.365 143.608 284.357 143.591 284.351 143.572L284.345 143.551C284.159 142.863 284.249 142.129 284.595 141.506C284.915 140.931 285.333 140.417 285.831 139.987C286.787 139.169 287.841 138.473 288.969 137.914C291.178 136.793 293.492 135.89 295.877 135.217C295.938 135.2 296.002 135.201 296.062 135.221C296.122 135.241 296.174 135.278 296.212 135.329C296.251 135.379 296.272 135.44 296.275 135.503C296.278 135.566 296.262 135.628 296.229 135.682L296.22 135.696C295.838 136.34 295.591 137.055 295.493 137.798C295.437 138.176 295.406 138.557 295.401 138.939C295.434 139.321 295.431 139.707 295.499 140.087C295.757 141.627 296.333 143.095 297.191 144.399C297.611 145.063 298.065 145.704 298.552 146.32C299.084 146.9 299.584 147.513 300.139 148.074C300.713 148.616 301.258 149.192 301.857 149.709L303.681 151.235C303.684 151.238 303.687 151.241 303.69 151.245C303.692 151.249 303.694 151.253 303.694 151.258C303.695 151.262 303.695 151.267 303.694 151.271C303.693 151.275 303.691 151.28 303.688 151.283C303.682 151.29 303.674 151.295 303.665 151.296C303.656 151.297 303.647 151.295 303.639 151.29L301.746 149.84C301.121 149.348 300.548 148.792 299.945 148.27C299.355 147.733 298.839 147.119 298.285 146.543C297.773 145.926 297.295 145.283 296.851 144.615C295.928 143.279 295.295 141.764 294.992 140.168C294.911 139.768 294.902 139.355 294.859 138.948C294.855 138.537 294.878 138.126 294.929 137.717C295.02 136.879 295.285 136.069 295.707 135.339L296.05 135.818C293.727 136.536 291.468 137.447 289.296 138.54C288.225 139.076 287.224 139.741 286.316 140.521C285.864 140.831 285.506 141.259 285.281 141.758C285.056 142.258 284.972 142.809 285.038 143.353L285.008 143.28C285.68 144.344 286.597 145.231 287.682 145.868C288.226 146.193 288.805 146.456 289.407 146.653C290.064 146.876 290.681 147.204 291.232 147.625C292.295 148.453 293.233 149.429 294.02 150.522C294.819 151.586 295.541 152.706 296.178 153.874L295.72 153.992C295.737 153.333 295.901 152.686 296.199 152.099C296.346 151.794 296.553 151.523 296.808 151.301C297.063 151.079 297.36 150.911 297.681 150.806C299.018 150.42 300.258 151.026 301.402 151.396C303.741 152.222 306.051 153.118 308.345 154.053L310.065 154.757L310.494 154.937C310.579 154.964 310.659 155.007 310.727 155.065C310.795 155.122 310.851 155.193 310.892 155.273C311.035 155.558 311.149 155.856 311.232 156.164C311.576 157.366 311.791 158.587 312.02 159.806C312.469 162.245 312.836 164.696 313.182 167.15L313.435 168.991C313.461 169.262 313.543 169.525 313.675 169.764C313.807 170.002 313.987 170.211 314.202 170.378C314.631 170.713 315.174 170.866 315.715 170.802C316.255 170.738 316.748 170.463 317.086 170.037C317.386 169.554 317.569 169.008 317.62 168.443C317.682 167.85 317.661 167.252 317.557 166.666L317.12 162.976C316.829 160.516 316.596 158.049 316.387 155.58C316.281 154.345 316.194 153.109 316.146 151.869C316.116 151.25 316.104 150.629 316.096 150.009C316.066 149.383 316.126 148.756 316.275 148.147C316.278 148.138 316.284 148.131 316.292 148.127C316.3 148.123 316.309 148.122 316.317 148.125C316.326 148.128 316.333 148.134 316.337 148.141C316.341 148.149 316.342 148.158 316.34 148.167L316.336 148.18Z" fill="black"/>
<path d="M319.434 140.201C319.919 140.887 320.346 141.611 320.713 142.366C320.896 142.746 321.028 143.151 321.189 143.545C321.32 143.953 321.417 144.372 321.479 144.797C321.632 145.667 321.56 146.563 321.27 147.398C320.945 148.253 320.326 148.965 319.525 149.407C319.494 149.424 319.459 149.434 319.424 149.438C319.389 149.441 319.353 149.438 319.319 149.428C319.285 149.417 319.254 149.401 319.226 149.378C319.199 149.356 319.176 149.328 319.159 149.297C319.143 149.267 319.133 149.234 319.129 149.199L319.128 149.19C319.017 147.99 318.761 146.808 318.367 145.669C318.169 145.107 317.858 144.591 317.453 144.155C317.255 143.957 316.999 143.826 316.723 143.781C316.588 143.798 316.458 143.842 316.34 143.91C316.222 143.978 316.119 144.069 316.036 144.177C315.351 145.165 314.856 146.271 314.575 147.44C314.227 148.597 313.935 149.781 313.68 150.958L313.685 150.845L313.997 152.993C314.01 153.085 313.987 153.179 313.932 153.254C313.878 153.33 313.796 153.381 313.704 153.398C313.612 153.414 313.518 153.395 313.44 153.343C313.363 153.291 313.309 153.21 313.289 153.119L313.288 153.111C313.098 152.101 312.988 151.077 312.959 150.049C312.904 149.03 312.929 148.013 312.976 147C313.062 144.975 313.272 142.958 313.606 140.959C313.607 140.95 313.612 140.942 313.62 140.937C313.627 140.931 313.636 140.929 313.645 140.931C313.654 140.932 313.661 140.937 313.666 140.943C313.672 140.95 313.675 140.958 313.674 140.966C313.608 142.986 313.575 145.001 313.576 147.011C313.549 149.004 313.688 150.997 313.992 152.967L313.283 153.086L313.033 150.93L313.032 150.919C313.028 150.885 313.03 150.851 313.038 150.818C313.325 149.619 313.682 148.438 314.109 147.282C314.499 146.099 315.09 144.991 315.854 144.007C315.961 143.876 316.094 143.768 316.244 143.69C316.395 143.613 316.559 143.566 316.728 143.554C317.057 143.608 317.361 143.764 317.595 144.001C318.04 144.446 318.387 144.979 318.616 145.565C319.11 146.703 319.467 147.896 319.682 149.119L319.285 148.902C319.93 148.495 320.427 147.89 320.7 147.178C320.979 146.44 321.066 145.643 320.951 144.863C320.93 144.464 320.805 144.074 320.745 143.673C320.62 143.287 320.524 142.888 320.374 142.507C320.21 142.131 320.082 141.737 319.908 141.363L319.375 140.237C319.373 140.233 319.372 140.228 319.371 140.224C319.371 140.219 319.371 140.215 319.373 140.211C319.374 140.206 319.376 140.202 319.379 140.199C319.382 140.195 319.386 140.192 319.39 140.19C319.397 140.186 319.406 140.186 319.414 140.188C319.422 140.19 319.429 140.194 319.434 140.201Z" fill="black"/>
<path d="M314.446 156.635C314.714 156.625 314.968 156.512 315.154 156.32C315.34 156.127 315.444 155.869 315.444 155.602C315.444 155.334 315.34 155.076 315.154 154.883C314.968 154.691 314.714 154.578 314.446 154.568C314.178 154.578 313.924 154.691 313.738 154.883C313.552 155.076 313.448 155.334 313.448 155.602C313.448 155.869 313.552 156.127 313.738 156.32C313.924 156.512 314.178 156.625 314.446 156.635Z" fill="black"/>
<path d="M315.19 162.338C315.458 162.328 315.711 162.216 315.898 162.023C316.084 161.83 316.188 161.573 316.188 161.305C316.188 161.037 316.084 160.779 315.898 160.586C315.711 160.394 315.458 160.281 315.19 160.271C314.922 160.281 314.668 160.394 314.482 160.586C314.296 160.779 314.192 161.037 314.192 161.305C314.192 161.573 314.296 161.83 314.482 162.023C314.668 162.216 314.922 162.328 315.19 162.338Z" fill="black"/>
<path d="M315.81 167.793C316.077 167.784 316.331 167.671 316.517 167.478C316.704 167.285 316.808 167.028 316.808 166.76C316.808 166.492 316.704 166.234 316.517 166.041C316.331 165.849 316.077 165.736 315.81 165.727C315.542 165.736 315.288 165.849 315.102 166.041C314.916 166.234 314.812 166.492 314.812 166.76C314.812 167.028 314.916 167.285 315.102 167.478C315.288 167.671 315.542 167.784 315.81 167.793Z" fill="black"/>
<path d="M322.398 138.263C326.528 138.366 330.653 138.64 334.767 139.063C336.825 139.262 338.875 139.551 340.919 139.899C342.999 140.189 345.034 140.742 346.974 141.547C347.228 141.673 347.466 141.829 347.684 142.011C347.884 142.192 348.073 142.385 348.251 142.588C348.593 142.958 348.965 143.311 349.334 143.675C350.098 144.399 350.787 145.199 351.392 146.061C352.548 147.814 353.407 149.747 353.933 151.78C354.971 155.792 355.614 159.895 355.854 164.032C355.354 159.943 354.542 155.898 353.426 151.932C352.862 149.976 352.003 148.117 350.878 146.42C350.288 145.597 349.617 144.835 348.874 144.146C348.505 143.79 348.125 143.435 347.761 143.051C347.461 142.677 347.083 142.372 346.655 142.156C344.782 141.367 342.818 140.815 340.809 140.515C338.788 140.14 336.746 139.867 334.705 139.587C330.617 139.056 326.51 138.649 322.398 138.263Z" fill="black"/>
<path d="M265.723 147.001C267.627 146.598 269.61 146.828 271.371 147.654C273.137 148.502 274.646 149.805 275.741 151.429C276.289 152.227 276.766 153.072 277.167 153.953C277.546 154.837 277.879 155.739 278.162 156.658C278.369 157.595 278.625 158.518 278.789 159.457C278.897 160.408 279.027 161.351 279.113 162.297C278.872 161.372 278.677 160.446 278.459 159.527C278.23 158.612 277.92 157.719 277.657 156.818C277.305 155.949 276.993 155.063 276.599 154.219C276.195 153.382 275.72 152.581 275.179 151.825C274.164 150.273 272.775 149.001 271.14 148.128C269.475 147.254 267.598 146.863 265.723 147.001Z" fill="black"/>
<path d="M290.188 190.563C290.663 191.827 291.163 193.078 291.745 194.292C292.295 195.52 292.899 196.721 293.539 197.901C294.806 200.264 296.254 202.526 297.869 204.665C299.462 206.818 301.274 208.799 303.275 210.577L304.804 211.882C305.327 212.299 305.893 212.66 306.435 213.056L307.25 213.65C307.533 213.83 307.828 213.991 308.117 214.163L309.859 215.193C307.36 214.128 305.027 212.709 302.931 210.98C300.843 209.233 298.96 207.253 297.321 205.08C295.703 202.896 294.281 200.575 293.07 198.143C291.857 195.719 290.891 193.18 290.188 190.563Z" fill="black"/>
<path d="M247.154 202.242C247.124 206.361 247.033 210.478 246.966 214.596C246.91 218.715 246.771 222.83 246.677 226.947L246.674 226.982L246.668 227.02C246.417 228.665 246.627 230.348 247.275 231.881C247.963 233.362 249.198 234.52 250.72 235.111C251.111 235.237 251.495 235.384 251.89 235.5L253.117 235.737C253.966 235.862 254.843 235.954 255.71 236.049C257.448 236.234 259.19 236.398 260.936 236.543C267.914 237.129 274.916 237.43 281.913 237.587C288.908 237.748 295.906 237.516 302.875 236.894C309.799 236.225 316.832 235.164 323.123 232.151C323.185 232.122 323.255 232.116 323.32 232.135C323.386 232.154 323.442 232.197 323.478 232.254C323.974 233.027 324.661 233.658 325.472 234.087C326.3 234.524 327.215 234.772 328.15 234.814C329.098 234.85 330.046 234.75 330.966 234.517C331.423 234.383 331.88 234.243 332.334 234.093L333.662 233.542L332.364 234.167C331.917 234.343 331.464 234.509 331.009 234.67C330.08 234.961 329.112 235.108 328.139 235.106C327.14 235.119 326.152 234.89 325.261 234.439C324.369 233.988 323.599 233.328 323.018 232.515L323.372 232.618C320.229 234.256 316.883 235.473 313.421 236.236C309.981 237.026 306.499 237.618 302.991 238.009C295.983 238.725 288.938 239.026 281.895 238.911C274.857 238.866 267.831 238.419 260.826 237.794C259.074 237.636 257.324 237.456 255.575 237.254C254.698 237.151 253.83 237.053 252.945 236.916L251.59 236.641C251.146 236.509 250.708 236.34 250.268 236.189C248.493 235.46 247.073 234.066 246.313 232.304C245.62 230.57 245.431 228.676 245.766 226.84L245.758 226.912C245.976 222.8 246.149 218.686 246.405 214.575C246.65 210.464 246.871 206.352 247.154 202.242Z" fill="black"/>
<path d="M272.668 207.078C272.783 209.342 272.847 211.606 272.926 213.87L272.771 213.634C280.737 216.49 289.1 218.086 297.558 218.363C301.763 218.491 305.969 218.161 310.102 217.38L313.18 216.715C314.197 216.457 315.183 216.091 316.187 215.786L317.691 215.315C318.181 215.129 318.657 214.907 319.142 214.705L322.043 213.462L321.797 213.834C321.911 213.146 322.18 212.494 322.586 211.927C322.962 211.377 323.431 210.897 323.972 210.508C325.029 209.759 326.244 209.263 327.523 209.058C328.144 208.949 328.771 208.873 329.4 208.83C330.028 208.83 330.655 208.776 331.278 208.822C331.9 208.873 332.525 208.873 333.141 208.968L334.985 209.242L333.128 209.138C332.511 209.107 331.892 209.136 331.277 209.131C330.661 209.127 330.051 209.223 329.44 209.264C328.837 209.347 328.238 209.462 327.646 209.607C326.485 209.883 325.394 210.397 324.441 211.116C323.535 211.795 322.919 212.792 322.716 213.907L322.712 213.937C322.702 214.01 322.675 214.078 322.632 214.138C322.59 214.197 322.534 214.246 322.47 214.279C318.659 216.303 314.583 217.78 310.36 218.667C306.136 219.522 301.825 219.872 297.519 219.711C293.227 219.554 288.96 218.999 284.771 218.052C282.685 217.564 280.615 217.012 278.578 216.359C276.529 215.734 274.521 214.982 272.566 214.107L272.554 214.102C272.51 214.082 272.473 214.049 272.447 214.008C272.421 213.967 272.409 213.919 272.41 213.87C272.489 211.606 272.554 209.342 272.668 207.078Z" fill="black"/>
<path d="M252.664 219.087C253.744 217.599 255.121 216.353 256.707 215.425C258.295 214.485 260.014 213.786 261.808 213.352C262.71 213.169 263.623 213.042 264.541 212.97C265.455 212.881 266.374 212.866 267.291 212.926C268.207 212.946 269.11 213.131 270.014 213.229C270.907 213.421 271.793 213.638 272.668 213.871C271.759 213.79 270.868 213.641 269.97 213.564C269.069 213.535 268.175 213.411 267.277 213.456C265.49 213.447 263.707 213.637 261.961 214.023C260.222 214.418 258.543 215.044 256.969 215.883C255.373 216.715 253.919 217.796 252.664 219.087Z" fill="black"/>
<path d="M322.256 213.871C322.531 214.47 322.856 215.045 323.228 215.59C323.579 216.123 324.031 216.582 324.558 216.942C324.688 217.02 324.825 217.086 324.967 217.141C325.159 217.213 325.333 217.327 325.475 217.474C325.603 217.64 325.687 217.834 325.72 218.04C325.753 218.247 325.735 218.458 325.666 218.655C325.441 219.328 325.075 219.946 324.592 220.467L324.588 220.471L324.569 220.49C324.054 220.975 323.667 221.578 323.44 222.248C323.336 222.564 323.303 222.899 323.345 223.229C323.386 223.559 323.501 223.876 323.681 224.156C324.015 224.699 324.748 225.228 325.029 226.062C325.116 226.277 325.155 226.509 325.143 226.741C325.131 226.973 325.069 227.199 324.96 227.404C324.724 227.784 324.369 228.075 323.95 228.232L324.042 228.168C323.5 228.741 323.086 229.422 322.826 230.167C322.7 230.539 322.661 230.935 322.713 231.323C322.8 231.716 322.984 232.081 323.248 232.384C322.925 232.116 322.683 231.761 322.552 231.361C322.447 230.945 322.44 230.51 322.532 230.091C322.62 229.674 322.77 229.274 322.979 228.902C323.178 228.526 323.413 228.17 323.681 227.84C323.697 227.82 323.717 227.804 323.74 227.792L323.773 227.776C324.065 227.64 324.305 227.416 324.461 227.135C324.522 226.999 324.554 226.851 324.555 226.702C324.555 226.553 324.524 226.405 324.463 226.268C324.239 225.625 323.633 225.225 323.13 224.51C322.887 224.152 322.728 223.744 322.666 223.316C322.617 222.888 322.663 222.454 322.801 222.046C323.078 221.27 323.545 220.575 324.159 220.025L324.136 220.048C324.562 219.599 324.899 219.073 325.129 218.498C325.183 218.387 325.208 218.263 325.203 218.139C325.197 218.015 325.161 217.895 325.098 217.788C325.013 217.693 324.91 217.617 324.794 217.564C324.632 217.488 324.476 217.399 324.328 217.297C323.775 216.88 323.326 216.341 323.016 215.722C322.694 215.135 322.44 214.514 322.256 213.871Z" fill="black"/>
<path d="M334.572 214.566C334.551 214.986 334.53 215.4 334.509 215.813C333.676 215.806 332.836 215.772 332.002 215.682C331.021 215.603 330.049 215.439 329.096 215.193C330.049 214.947 331.021 214.784 332.002 214.704C332.856 214.615 333.717 214.58 334.572 214.566Z" fill="black"/>
<path d="M334.351 219.202C334.323 219.622 334.31 220.035 334.289 220.441C333.525 220.428 332.767 220.393 332.002 220.311C331.021 220.231 330.049 220.067 329.096 219.821C330.049 219.576 331.021 219.412 332.002 219.332C332.788 219.25 333.566 219.215 334.351 219.202Z" fill="black"/>
<path d="M334.144 223.665C334.131 224.085 334.11 224.498 334.096 224.905C333.401 224.884 332.698 224.85 332.002 224.774C331.021 224.694 330.049 224.531 329.096 224.285C330.049 224.039 331.021 223.875 332.002 223.796C332.719 223.72 333.435 223.686 334.144 223.665Z" fill="black"/>
<path d="M332.002 229.126C332.65 229.057 333.297 229.023 333.938 229.002C333.917 229.423 333.903 229.829 333.89 230.222C333.263 230.208 332.629 230.173 332.002 230.104C331.021 230.025 330.049 229.861 329.096 229.615C330.049 229.37 331.021 229.206 332.002 229.126Z" fill="black"/>
<path d="M310.772 239.378C310.772 239.378 298.363 227.114 293.73 235.067C289.097 243.02 292.282 248.855 295.724 252.791C299.917 257.587 300.128 259.024 301.373 260.444C302.617 261.865 316.663 279.037 334.169 278.072C344.381 277.509 344.207 272.067 342.289 267.63C340.895 264.487 338.655 261.793 335.819 259.85C330.227 255.941 317.73 246.89 310.772 239.378Z" fill="black"/>
<path d="M306.54 235.874C309.208 236 311.869 236.179 314.531 236.353L322.511 236.895C325.168 237.105 327.829 237.259 330.488 237.401C331.817 237.483 333.148 237.531 334.478 237.553C335.141 237.552 335.81 237.6 336.471 237.552L337.468 237.504L338.454 237.349C335.828 237.882 333.145 238.077 330.47 237.93C327.797 237.898 325.13 237.738 322.464 237.581C319.802 237.372 317.14 237.163 314.486 236.879C311.831 236.595 309.18 236.283 306.54 235.874Z" fill="black"/>
<path d="M333.097 258.266C333.021 258.266 332.948 258.241 332.888 258.196C332.828 258.15 332.784 258.085 332.764 258.013C332.744 257.94 332.749 257.862 332.777 257.792C332.805 257.722 332.856 257.663 332.921 257.625C333.46 257.307 346.178 249.84 350.937 251.392C351.024 251.421 351.095 251.483 351.136 251.564C351.177 251.646 351.184 251.74 351.155 251.826C351.127 251.913 351.066 251.985 350.984 252.026C350.903 252.067 350.809 252.075 350.722 252.047C346.261 250.585 333.401 258.141 333.271 258.219C333.218 258.25 333.158 258.266 333.097 258.266Z" fill="black"/>
<path d="M409.136 207.63L409.143 207.63L409.168 207.635L439.168 218.753L439.195 218.764C442.177 220.159 445.015 221.844 447.666 223.796C450.344 225.751 452.703 228.108 454.658 230.785C455.665 232.135 456.456 233.634 457.002 235.226C457.53 236.795 457.942 238.401 458.237 240.03C458.906 243.341 458.675 246.77 457.568 249.962C456.948 251.55 456.036 253.008 454.879 254.262C453.714 255.496 452.354 256.529 450.853 257.321C449.362 258.108 447.772 258.692 446.126 259.057C445.308 259.23 444.479 259.352 443.646 259.425L441.211 259.691C434.719 260.385 428.229 261.09 421.731 261.723C408.737 262.994 395.738 264.24 382.711 265.199C379.455 265.442 376.197 265.669 372.935 265.856C369.666 266.019 366.422 266.247 363.099 266.101C361.393 265.961 359.771 265.301 358.451 264.21C357.155 263.164 356.016 261.938 355.067 260.569C353.193 257.857 351.685 254.911 350.581 251.805C350.565 251.764 350.561 251.72 350.568 251.677C350.574 251.633 350.591 251.593 350.618 251.558C350.644 251.523 350.679 251.496 350.719 251.478C350.759 251.46 350.802 251.453 350.846 251.457L350.855 251.457C352.25 251.637 353.662 251.632 355.056 251.444C355.711 251.318 356.405 251.056 356.595 250.5C356.713 249.856 356.585 249.191 356.239 248.636C355.553 247.4 354.752 246.231 353.845 245.147C352.958 244.031 352.04 242.936 351.129 241.833C350.218 240.73 349.313 239.62 348.437 238.486C347.606 237.346 346.602 236.343 345.461 235.514C344.926 235.088 344.298 234.794 343.628 234.657C342.959 234.52 342.266 234.544 341.607 234.726C340.325 235.243 339.279 236.214 338.67 237.455L338.663 237.468C338.64 237.51 338.606 237.543 338.565 237.565C338.524 237.587 338.477 237.597 338.43 237.592C338.383 237.587 338.339 237.569 338.303 237.54C338.266 237.51 338.24 237.47 338.226 237.426C337.775 236.039 337.54 234.591 337.528 233.132C337.524 232.389 337.642 231.65 337.876 230.944C338.118 230.21 338.578 229.568 339.195 229.103L339.16 229.134C339.725 228.639 340.373 228.25 341.074 227.983C341.74 227.705 342.421 227.462 343.113 227.254C344.489 226.834 345.88 226.493 347.277 226.183C350.072 225.57 352.886 225.079 355.707 224.632C361.348 223.747 367.013 223.046 372.683 222.41C384.026 221.138 395.389 220.127 406.774 219.29L406.279 219.76C406.997 215.226 407.927 210.85 408.806 206.408L411.542 193.142L417.04 166.615L417.294 167.309C416.679 166.967 416.013 166.727 415.321 166.597C414.569 166.425 413.797 166.283 413.016 166.169C411.456 165.933 409.871 165.772 408.286 165.63C405.112 165.351 401.919 165.186 398.727 165.042C392.338 164.758 385.937 164.627 379.536 164.551C366.732 164.403 353.919 164.515 341.115 164.693L341.578 164.489C341.151 165.024 340.821 165.63 340.603 166.279C340.341 166.969 340.121 167.69 339.923 168.42C339.53 169.882 339.222 171.382 338.944 172.888C338.395 175.903 337.978 178.952 337.61 182.007C336.882 188.12 336.353 194.263 335.897 200.41C335.446 206.56 335.068 212.716 334.762 218.877C334.422 225.029 334.196 231.199 333.965 237.358L333.965 237.364C333.962 237.443 333.928 237.518 333.87 237.572C333.813 237.626 333.736 237.656 333.657 237.654L307.405 236.972C307.387 236.971 307.37 236.963 307.358 236.95C307.345 236.937 307.338 236.92 307.339 236.902C307.339 236.883 307.346 236.866 307.359 236.853C307.372 236.841 307.39 236.834 307.408 236.834L333.667 237.047L333.359 237.343C333.516 231.169 333.694 225.006 333.972 218.834C334.221 212.673 334.541 206.51 334.931 200.344C335.33 194.182 335.8 188.023 336.473 181.876C336.814 178.803 337.204 175.732 337.73 172.671C337.998 171.141 338.295 169.614 338.688 168.093C338.887 167.333 339.109 166.574 339.388 165.819C339.656 165 340.076 164.239 340.624 163.575C340.679 163.513 340.745 163.463 340.82 163.429C340.895 163.394 340.976 163.374 341.058 163.372L341.087 163.371C347.499 163.206 353.907 163.147 360.318 163.1C366.728 163.059 373.139 163.066 379.551 163.121C385.963 163.186 392.376 163.307 398.791 163.582C401.999 163.725 405.206 163.915 408.414 164.207C410.018 164.357 411.622 164.527 413.229 164.777C414.032 164.898 414.837 165.048 415.645 165.237C416.53 165.405 417.377 165.735 418.143 166.21C418.246 166.28 418.327 166.379 418.374 166.495C418.421 166.61 418.432 166.737 418.407 166.86L418.397 166.904L412.789 193.401L409.972 206.646C409.056 211.052 408.073 215.505 407.338 219.883L407.333 219.911C407.313 220.029 407.254 220.137 407.165 220.217C407.076 220.298 406.963 220.346 406.843 220.353C395.472 221.086 384.102 221.992 372.765 223.159C367.098 223.758 361.436 224.421 355.805 225.268C352.99 225.696 350.181 226.167 347.402 226.758C346.013 227.057 344.631 227.386 343.277 227.791C342.602 227.988 341.937 228.221 341.286 228.487C340.651 228.724 340.061 229.068 339.543 229.505L339.533 229.514L339.507 229.536C338.974 229.935 338.576 230.487 338.366 231.119C338.147 231.77 338.035 232.452 338.035 233.139C338.04 234.542 338.258 235.935 338.682 237.272L338.237 237.243C338.909 235.892 340.06 234.841 341.465 234.294C342.189 234.095 342.951 234.07 343.687 234.221C344.423 234.371 345.113 234.694 345.701 235.162C346.87 236.026 347.904 237.059 348.771 238.226C349.648 239.35 350.556 240.452 351.471 241.549C352.386 242.647 353.311 243.738 354.209 244.857C355.143 245.963 355.968 247.156 356.673 248.42C357.089 249.091 357.228 249.897 357.061 250.668C356.909 251.062 356.615 251.385 356.238 251.575C355.897 251.749 355.532 251.872 355.155 251.941C353.713 252.147 352.25 252.16 350.805 251.982L351.079 251.635C352.173 254.685 353.681 257.571 355.56 260.211C356.489 261.518 357.599 262.686 358.858 263.679C360.082 264.673 361.582 265.265 363.154 265.375C366.355 265.477 369.638 265.214 372.882 265.011C376.134 264.787 379.385 264.521 382.634 264.241C395.632 263.089 408.624 261.843 421.609 260.505L441.088 258.528C442.7 258.332 444.369 258.257 445.882 257.937C447.428 257.601 448.923 257.06 450.326 256.328C453.158 254.908 455.375 252.506 456.563 249.57C457.613 246.562 457.839 243.327 457.218 240.202C456.942 238.617 456.556 237.052 456.062 235.521C455.562 234.017 454.832 232.599 453.897 231.319C452.023 228.695 449.754 226.378 447.17 224.449C444.583 222.499 441.809 220.81 438.89 219.405L438.916 219.416L409.119 207.764L409.143 207.768L409.136 207.768C409.118 207.768 409.101 207.761 409.088 207.748C409.075 207.735 409.067 207.718 409.067 207.699C409.067 207.681 409.075 207.664 409.088 207.651C409.101 207.638 409.118 207.631 409.136 207.631L409.136 207.63Z" fill="black"/>
<path d="M341.101 164.032C336.059 169.735 333.662 237.35 333.662 237.35H338.456C338.456 237.35 336.452 231.413 339.352 229.32C344.62 223.892 406.809 219.822 406.809 219.822C406.946 218.63 407.876 213.891 409.143 207.699C412.353 191.934 417.719 166.76 417.719 166.76C412.264 162.544 341.101 164.032 341.101 164.032ZM376.31 195.026C370.284 195.026 365.4 193.58 365.4 191.803C365.4 190.026 370.284 188.58 376.31 188.58C382.337 188.58 387.22 190.026 387.22 191.803C387.22 193.58 382.337 195.026 376.31 195.026V195.026Z" fill="black"/>
<path d="M271.609 237.921C270.811 242.67 270.393 247.475 270.359 252.29C270.284 257.09 270.743 261.884 271.729 266.583C272.782 271.218 274.61 275.798 277.823 279.27C279.462 280.972 281.364 282.4 283.455 283.5L285.017 284.369C285.541 284.654 286.091 284.895 286.627 285.16C287.702 285.684 288.781 286.202 289.892 286.657C294.293 288.564 298.817 290.211 303.382 291.726C307.944 293.253 312.55 294.654 317.171 296.007C326.408 298.746 335.734 301.132 345.086 303.519C347.481 304.156 349.724 305.265 351.683 306.782C353.642 308.299 355.278 310.192 356.495 312.351C357.096 313.426 357.593 314.555 357.98 315.724C358.335 316.895 358.602 318.09 358.78 319.301L359.966 326.435C361.598 335.939 363.178 345.452 364.874 354.945L375.066 411.9L374.588 411.487C381.702 411.59 388.835 411.496 395.936 411.116C399.486 410.926 403.032 410.659 406.541 410.198C408.286 409.974 410.019 409.66 411.732 409.258C412.571 409.06 413.397 408.809 414.204 408.505C414.95 408.247 415.636 407.842 416.224 407.316L416.049 407.795C415.542 395.598 414.936 383.4 414.304 371.206C413.664 359.012 412.873 346.828 412.074 334.645C411.238 322.465 410.28 310.291 408.962 298.157C408.302 292.09 407.528 286.036 406.556 280.015C406.062 277.007 405.514 274.005 404.777 271.049C404.421 269.57 403.977 268.114 403.446 266.688C403.181 265.978 402.856 265.292 402.473 264.638C402.313 264.304 402.088 264.004 401.812 263.757C401.535 263.509 401.212 263.319 400.862 263.196L400.857 263.195C400.839 263.192 400.823 263.181 400.813 263.166C400.803 263.151 400.799 263.132 400.803 263.115C400.806 263.097 400.817 263.081 400.832 263.071C400.847 263.061 400.865 263.057 400.883 263.06C401.259 263.178 401.607 263.369 401.907 263.623C402.208 263.876 402.455 264.188 402.634 264.538C403.038 265.194 403.384 265.883 403.67 266.598C404.237 268.022 404.718 269.48 405.11 270.962C405.917 273.916 406.534 276.915 407.099 279.921C408.212 285.936 409.013 291.999 409.762 298.064C411.228 310.2 412.334 322.373 413.317 334.553C414.321 346.732 415.041 358.93 415.732 371.129C416.422 383.328 416.98 395.534 417.404 407.746L417.404 407.767C417.407 407.851 417.393 407.935 417.363 408.014C417.333 408.092 417.287 408.164 417.229 408.225C416.501 408.909 415.636 409.43 414.691 409.755C413.827 410.076 412.944 410.34 412.046 410.547C410.285 410.952 408.504 411.265 406.71 411.485C403.143 411.935 399.57 412.184 395.998 412.356C388.849 412.66 381.708 412.668 374.562 412.484C374.446 412.481 374.336 412.438 374.249 412.363C374.162 412.287 374.103 412.184 374.084 412.071L364.425 355.023C362.813 345.516 361.084 336.029 359.408 326.532L358.113 319.417C357.923 318.244 357.647 317.086 357.286 315.954C356.897 314.839 356.403 313.764 355.812 312.742C354.624 310.704 353.042 308.924 351.157 307.507C349.272 306.09 347.123 305.064 344.836 304.489C335.457 302.288 326.099 299.87 316.827 297.185C312.186 295.855 307.584 294.384 303.007 292.835C298.431 291.287 293.892 289.605 289.456 287.653C288.337 287.188 287.246 286.656 286.157 286.117C285.614 285.844 285.06 285.598 284.526 285.304L282.933 284.406C280.757 283.243 278.789 281.727 277.109 279.92C273.784 276.216 271.994 271.474 270.987 266.746C270.041 261.986 269.667 257.13 269.874 252.281C270.024 247.45 270.559 242.639 271.474 237.894C271.478 237.876 271.488 237.86 271.504 237.85C271.519 237.839 271.537 237.836 271.555 237.839C271.573 237.843 271.588 237.854 271.599 237.869C271.609 237.884 271.613 237.903 271.609 237.921Z" fill="black"/>
<path d="M385.732 420.788C385.732 420.788 379.781 420.168 379.781 423.019C379.781 425.871 380.277 446.699 382.757 447.319C385.236 447.938 457.887 472.982 477.227 452.65C477.227 452.65 490.617 445.211 465.325 436.533C440.034 427.854 424.165 419.176 424.165 419.176C424.165 419.176 400.114 419.92 399.618 422.399C399.122 424.879 402.841 433.805 402.841 433.805C402.841 433.805 386.972 437.524 385.732 420.788Z" fill="black"/>
<path d="M385.733 421.132C385.704 421.132 385.675 421.129 385.647 421.122C385.559 421.099 385.483 421.042 385.436 420.963C385.39 420.884 385.376 420.79 385.399 420.702C385.726 419.269 385.768 417.786 385.521 416.337C385.275 414.888 384.745 413.501 383.963 412.257C383.937 412.22 383.918 412.179 383.908 412.134C383.899 412.09 383.898 412.045 383.906 412C383.914 411.956 383.93 411.913 383.954 411.875C383.979 411.837 384.01 411.804 384.047 411.778C384.085 411.752 384.126 411.734 384.17 411.724C384.215 411.714 384.26 411.713 384.305 411.721C384.349 411.729 384.392 411.746 384.43 411.77C384.468 411.794 384.501 411.826 384.527 411.863C385.376 413.184 385.95 414.663 386.215 416.211C386.479 417.76 386.429 419.345 386.066 420.874C386.047 420.948 386.004 421.013 385.944 421.06C385.883 421.107 385.809 421.132 385.733 421.132Z" fill="black"/>
<path d="M421.19 419.52L421.178 419.519C413.682 419.269 406.354 411.45 406.046 411.118C406.015 411.085 405.991 411.046 405.976 411.003C405.96 410.961 405.953 410.916 405.954 410.871C405.956 410.826 405.967 410.781 405.985 410.74C406.004 410.699 406.031 410.662 406.064 410.631C406.097 410.6 406.136 410.576 406.179 410.561C406.221 410.545 406.266 410.538 406.311 410.539C406.357 410.541 406.401 410.552 406.442 410.57C406.483 410.589 406.52 410.616 406.551 410.649C406.625 410.729 413.994 418.591 421.201 418.832C421.292 418.835 421.377 418.873 421.439 418.939C421.501 419.004 421.535 419.091 421.534 419.182C421.532 419.272 421.495 419.358 421.431 419.421C421.367 419.485 421.28 419.52 421.19 419.52V419.52Z" fill="black"/>
<path d="M248.312 234.261C248.262 234.251 248.212 234.251 248.163 234.241L248.103 234.181C248.174 234.203 248.244 234.23 248.312 234.261Z" fill="white"/>
<path d="M270.092 257.871V257.931C270.123 257.751 270.152 257.581 270.183 257.401C270.152 257.561 270.123 257.711 270.092 257.871Z" fill="white"/>
<path d="M407.623 284.111V284.131C407.583 284.141 407.552 284.151 407.512 284.161C407.552 284.141 407.583 284.131 407.623 284.111Z" fill="white"/>
<path d="M238.303 291.476L239.481 312.186L240.555 332.899C240.922 339.803 241.407 346.703 241.526 353.616C241.579 357.073 241.632 360.53 241.596 363.99L241.538 369.18C241.478 370.912 241.456 372.642 241.362 374.375C241.36 374.401 241.349 374.425 241.331 374.444C241.312 374.462 241.288 374.472 241.262 374.473C241.236 374.474 241.211 374.465 241.191 374.449C241.171 374.432 241.158 374.409 241.155 374.383C240.933 372.662 240.784 370.938 240.596 369.215L240.157 364.043C239.865 360.595 239.663 357.144 239.461 353.692C239.071 346.789 239.047 339.872 238.903 332.96L238.448 312.224L238.097 291.484C238.097 291.457 238.107 291.431 238.125 291.411C238.144 291.392 238.169 291.38 238.196 291.379C238.223 291.378 238.25 291.388 238.27 291.406C238.29 291.424 238.302 291.449 238.303 291.476V291.476Z" fill="black"/>
<path d="M294.589 330.656L295.167 351.746L295.643 372.837C295.81 379.867 296.095 386.896 296.015 393.929C295.968 397.445 295.921 400.961 295.784 404.478L295.577 409.753C295.467 411.512 295.395 413.27 295.25 415.029C295.248 415.055 295.236 415.079 295.217 415.097C295.198 415.114 295.174 415.124 295.148 415.124C295.122 415.125 295.097 415.115 295.077 415.098C295.058 415.08 295.046 415.056 295.043 415.031C294.871 413.274 294.772 411.517 294.634 409.76L294.344 404.489C294.153 400.975 294.051 397.46 293.949 393.945C293.758 386.915 293.933 379.882 293.99 372.85L294.135 351.754L294.382 330.658C294.383 330.631 294.394 330.605 294.413 330.586C294.432 330.567 294.458 330.556 294.485 330.556C294.512 330.555 294.538 330.566 294.557 330.585C294.577 330.603 294.588 330.629 294.589 330.656L294.589 330.656Z" fill="black"/>
<path d="M241.258 374.496C246.097 374.496 250.019 373.756 250.019 372.843C250.019 371.93 246.097 371.19 241.258 371.19C236.42 371.19 232.497 371.93 232.497 372.843C232.497 373.756 236.42 374.496 241.258 374.496Z" fill="black"/>
<path d="M294.816 415.367C299.655 415.367 303.577 414.626 303.577 413.714C303.577 412.801 299.655 412.061 294.816 412.061C289.978 412.061 286.055 412.801 286.055 413.714C286.055 414.626 289.978 415.367 294.816 415.367Z" fill="black"/>
<path d="M353.081 317.015L353.852 326.691L354.519 336.37C354.728 339.597 355.115 342.818 355.083 346.053C355.106 349.304 354.915 352.553 354.511 355.778C354.508 355.803 354.496 355.825 354.477 355.842C354.459 355.859 354.436 355.868 354.411 355.869C354.386 355.87 354.362 355.862 354.343 355.847C354.323 355.832 354.31 355.81 354.304 355.786C353.664 352.599 353.234 349.373 353.018 346.13C352.747 342.905 352.896 339.665 352.867 336.431L352.819 326.729L352.875 317.023C352.875 316.996 352.885 316.971 352.904 316.951C352.922 316.932 352.947 316.921 352.974 316.92C353.001 316.919 353.027 316.928 353.047 316.946C353.067 316.964 353.079 316.989 353.081 317.015Z" fill="black"/>
<path d="M430.055 294.857L430.632 315.701L431.105 336.546C431.271 343.494 431.556 350.442 431.475 357.392C431.428 360.867 431.381 364.342 431.244 367.818L431.036 373.031C430.926 374.77 430.854 376.508 430.709 378.246C430.707 378.272 430.695 378.296 430.676 378.314C430.657 378.331 430.632 378.341 430.606 378.341C430.58 378.341 430.555 378.332 430.536 378.315C430.517 378.297 430.505 378.273 430.502 378.248C430.33 376.512 430.231 374.775 430.093 373.039L429.804 367.829C429.613 364.356 429.511 360.882 429.409 357.408C429.219 350.46 429.395 343.509 429.452 336.559L429.599 315.709L429.849 294.859C429.849 294.832 429.86 294.806 429.879 294.787C429.898 294.768 429.924 294.757 429.951 294.757C429.978 294.757 430.004 294.767 430.024 294.786C430.043 294.805 430.055 294.83 430.055 294.857V294.857Z" fill="black"/>
<path d="M354.408 355.9C359.246 355.9 363.169 355.16 363.169 354.247C363.169 353.334 359.246 352.594 354.408 352.594C349.569 352.594 345.647 353.334 345.647 354.247C345.647 355.16 349.569 355.9 354.408 355.9Z" fill="black"/>
<path d="M430.275 378.584C435.114 378.584 439.036 377.844 439.036 376.931C439.036 376.018 435.114 375.278 430.275 375.278C425.437 375.278 421.514 376.018 421.514 376.931C421.514 377.844 425.437 378.584 430.275 378.584Z" fill="black"/>
<path d="M338.454 237.693H333.662C333.571 237.693 333.484 237.656 333.42 237.592C333.355 237.527 333.319 237.44 333.319 237.349C333.319 237.258 333.355 237.17 333.42 237.106C333.484 237.041 333.571 237.004 333.662 237.004H338.454C338.545 237.004 338.632 237.041 338.696 237.106C338.761 237.17 338.797 237.258 338.797 237.349C338.797 237.44 338.761 237.527 338.696 237.592C338.632 237.656 338.545 237.693 338.454 237.693Z" fill="black"/>
</svg>
