<svg width="700" height="550" viewBox="0 0 700 550" fill="none" xmlns="http://www.w3.org/2000/svg">
<path d="M285.96 165.34C286.199 167.943 286.257 170.559 286.133 173.17C286.066 174.491 285.924 175.808 285.707 177.113C285.587 177.782 285.426 178.444 285.224 179.093C285.119 179.433 284.991 179.766 284.842 180.089L284.66 180.497C284.616 180.61 284.581 180.727 284.555 180.845C284.408 181.938 284.654 183.048 285.251 183.975C285.857 185.043 286.577 186.042 287.399 186.955L288.023 187.656L288.346 187.998L288.51 188.166C288.601 188.259 288.684 188.359 288.759 188.466C289.06 188.898 289.188 189.427 289.117 189.949C289.082 190.204 288.999 190.451 288.873 190.677C288.773 190.844 288.662 191.005 288.541 191.158C287.696 192.366 286.434 193.219 284.997 193.552L285.398 193.223C284.288 195.342 283.056 197.394 281.707 199.37C280.409 201.385 278.88 203.243 277.151 204.904C276.255 205.754 275.217 206.44 274.083 206.931C273.484 207.174 272.849 207.316 272.204 207.35C271.874 207.362 271.544 207.343 271.217 207.295L270.319 207.135C269.114 206.922 267.93 206.604 266.781 206.184C266.176 205.955 265.598 205.659 265.058 205.302C264.759 205.104 264.486 204.87 264.244 204.604C264.104 204.452 263.983 204.285 263.883 204.104C263.824 204.001 263.774 203.892 263.735 203.78C263.673 203.614 263.643 203.438 263.646 203.262L264.923 203.981C263.25 205.357 261.853 207.038 260.807 208.935C260.278 209.879 259.851 210.876 259.53 211.91C259.212 212.939 258.981 213.994 258.84 215.062L258.832 215.114C258.798 215.325 258.7 215.52 258.55 215.672C258.401 215.824 258.208 215.926 257.998 215.963C257.788 216 257.571 215.971 257.379 215.879C257.186 215.787 257.027 215.638 256.923 215.451C255.708 213.227 254.718 210.886 253.969 208.465C253.204 206.06 252.685 203.585 252.418 201.075C252.13 198.564 252.198 196.025 252.622 193.533C253.03 191.055 253.891 188.673 255.162 186.507C255.175 186.485 255.196 186.469 255.221 186.462C255.246 186.456 255.272 186.459 255.294 186.472C255.314 186.485 255.329 186.504 255.336 186.526C255.344 186.548 255.343 186.572 255.335 186.594C254.882 187.728 254.512 188.895 254.227 190.083C253.961 191.264 253.777 192.461 253.675 193.667C253.511 196.071 253.627 198.486 254.019 200.863C254.423 203.238 255.033 205.573 255.841 207.843C256.628 210.106 257.587 212.305 258.71 214.421L256.793 214.81C257.118 212.401 257.926 210.083 259.168 207.994C259.778 206.955 260.489 205.979 261.293 205.081C262.093 204.161 263.002 203.34 263.999 202.637L265.275 203.357C265.275 203.194 265.267 203.278 265.272 203.271C265.28 203.299 265.29 203.327 265.304 203.352C265.342 203.433 265.391 203.509 265.45 203.577C265.598 203.757 265.769 203.918 265.958 204.056C266.391 204.373 266.857 204.644 267.348 204.862C268.389 205.34 269.471 205.725 270.579 206.015C272.716 206.887 274.95 205.89 276.709 204.395C278.461 202.841 279.968 201.03 281.177 199.025C282.404 197.025 283.461 194.926 284.338 192.751C284.369 192.674 284.417 192.606 284.478 192.552C284.54 192.497 284.613 192.457 284.692 192.434L284.74 192.421C285.831 192.056 286.749 191.302 287.319 190.303C287.39 190.195 287.455 190.082 287.514 189.967C287.54 189.905 287.553 189.838 287.553 189.77C287.555 189.641 287.513 189.514 287.434 189.412C287.413 189.387 287.391 189.364 287.367 189.342L287.184 189.17L286.822 188.821C286.584 188.585 286.348 188.345 286.121 188.098C285.185 187.098 284.382 185.982 283.732 184.778C282.955 183.474 282.687 181.929 282.979 180.44C283.033 180.244 283.101 180.052 283.184 179.867L283.42 179.397C283.554 179.136 283.672 178.868 283.771 178.592C283.981 178.011 284.155 177.418 284.292 176.816C284.585 175.576 284.814 174.322 284.978 173.059C285.333 170.514 285.573 167.933 285.766 165.343C285.768 165.318 285.779 165.293 285.798 165.276C285.817 165.259 285.843 165.25 285.868 165.252C285.891 165.253 285.913 165.263 285.93 165.279C285.947 165.295 285.957 165.317 285.96 165.34Z" fill="#020202"/>
<path d="M257.817 190.732C258.151 192.532 258.718 194.281 259.502 195.936C259.893 196.737 260.379 197.488 260.949 198.174C261.545 198.877 262.204 199.523 262.919 200.105C261.985 199.834 261.126 199.354 260.407 198.7C259.673 198.044 259.072 197.253 258.637 196.37C258.207 195.496 257.914 194.56 257.769 193.597C257.612 192.647 257.628 191.677 257.817 190.732Z" fill="#020202"/>
<path d="M255.248 186.55C247.941 203.738 257.817 214.936 257.817 214.936C239.747 211.048 230.365 221.922 230.365 221.922C225.496 211.504 214.273 213.038 214.273 213.038C214.273 213.038 207.391 205.919 216.171 200.105C222.317 196.036 223.115 192.257 223.04 190.356C222.936 188.639 223.139 186.917 223.638 185.271C224.416 182.885 225.595 180.649 227.122 178.658C229.631 175.44 231.516 171.782 232.682 167.871C235.182 159.256 241.095 145.541 253.287 146.358C256.372 146.066 259.484 146.226 262.523 146.833C266.698 147.719 270.669 149.383 274.23 151.737C278.648 154.467 282.556 157.946 285.778 162.019C286.151 165.518 285.374 169.043 283.563 172.06C280.273 177.38 274.665 178.995 271.545 179.485C270.484 179.67 269.394 179.58 268.379 179.223C267.363 178.866 266.457 178.253 265.746 177.445C265.244 176.85 264.866 176.16 264.634 175.417C264.348 174.328 263.844 173.308 263.153 172.42C262.461 171.531 261.597 170.792 260.612 170.246C258.177 169.041 255.197 169.405 253.783 176.732C252.606 182.83 253.696 185.479 255.248 186.55Z" fill="#020202"/>
<path d="M365.824 293.478C362.52 294.055 359.186 294.442 355.838 294.636C352.509 294.858 349.179 294.975 345.849 294.988C342.519 295.005 339.188 294.899 335.857 294.698C332.508 294.524 329.171 294.156 325.865 293.594C329.168 293.014 332.503 292.626 335.852 292.433C339.181 292.213 342.51 292.087 345.84 292.085C349.17 292.073 352.5 292.171 355.83 292.379C359.18 292.554 362.517 292.921 365.824 293.478Z" fill="#020202"/>
<path d="M290.193 293.807C283.679 294.35 277.147 294.633 270.612 294.829L268.16 294.904L266.935 294.937C266.505 294.96 266.074 294.952 265.646 294.91C263.758 294.756 261.941 294.123 260.365 293.072C258.868 292.081 257.536 290.86 256.417 289.456C255.293 288.092 254.322 286.609 253.522 285.032C253.493 284.974 253.468 284.913 253.449 284.851L253.429 284.783C251.523 278.382 249.574 271.973 247.583 265.556C246.566 262.355 245.51 259.163 244.415 255.982L242.664 251.251L240.78 246.571C239.472 243.473 238.123 240.392 236.687 237.35C235.254 234.307 233.735 231.303 232.218 228.302C230.686 225.308 229.124 222.331 227.531 219.371C226.903 218.11 225.948 217.042 224.765 216.277C223.583 215.512 222.217 215.079 220.809 215.023L210.844 215.394C207.463 215.495 204.077 215.559 200.678 215.549C197.274 215.49 193.878 215.39 190.391 214.989C189.517 214.874 188.637 214.736 187.722 214.534C187.24 214.431 186.764 214.301 186.296 214.147C185.664 213.952 185.07 213.65 184.541 213.254C184.313 213.072 184.111 212.859 183.94 212.623C183.693 212.275 183.531 211.874 183.468 211.453C183.441 211.227 183.44 210.998 183.465 210.772L183.533 210.446C183.575 210.239 183.636 210.036 183.716 209.84C183.843 209.529 184 209.231 184.185 208.951C184.336 208.71 184.504 208.48 184.688 208.263C185.314 207.527 186.005 206.848 186.753 206.236C189.494 204.13 192.371 202.207 195.365 200.48L204.078 195.387C205.509 194.534 206.931 193.662 208.266 192.735C208.608 192.505 208.913 192.27 209.252 192.025L210.37 191.244C210.76 191.011 211.164 190.802 211.559 190.583C211.964 190.383 212.388 190.221 212.802 190.046C214.475 189.444 216.247 189.162 218.024 189.214C219.759 189.233 221.478 189.556 223.101 190.169C223.146 190.187 223.183 190.22 223.204 190.263C223.226 190.307 223.23 190.356 223.217 190.403C223.204 190.449 223.174 190.489 223.132 190.514C223.091 190.539 223.042 190.548 222.995 190.539L222.977 190.536C219.779 189.845 216.441 190.231 213.484 191.634C213.144 191.833 212.791 192.001 212.461 192.21L211.504 192.878L210.621 193.637C210.304 193.92 209.971 194.234 209.639 194.509C208.311 195.644 206.924 196.635 205.543 197.631C202.781 199.617 199.945 201.44 197.187 203.341C194.433 205.125 191.792 207.075 189.276 209.181C188.732 209.649 188.229 210.163 187.774 210.718C187.685 210.822 187.607 210.935 187.54 211.054C187.492 211.124 187.453 211.2 187.422 211.279C187.39 211.324 187.439 211.279 187.428 211.277C187.429 211.27 187.427 211.263 187.422 211.258C187.441 211.136 187.44 211.013 187.419 210.892C187.393 210.593 187.254 210.316 187.032 210.115C186.984 210.078 187.252 210.227 187.545 210.305C187.879 210.404 188.219 210.486 188.562 210.549C189.295 210.691 190.083 210.797 190.88 210.88C194.085 211.244 197.429 211.365 200.755 211.449C204.088 211.564 207.438 211.605 210.789 211.611L215.82 211.589L218.336 211.559C219.186 211.559 219.954 211.498 221.018 211.569C222.993 211.712 224.891 212.398 226.501 213.551C228.111 214.704 229.372 216.28 230.143 218.105C231.495 221.201 232.8 224.316 234.098 227.433L237.956 236.789L241.865 246.116C247.027 258.546 253.166 270.697 256.754 283.824L256.661 283.576C257.924 286.259 259.807 288.604 262.153 290.417C263.256 291.242 264.551 291.771 265.916 291.954C266.295 292.009 266.679 292.035 267.063 292.029L268.279 292.076L270.71 292.179C277.196 292.448 283.685 292.804 290.193 293.42C290.244 293.425 290.292 293.449 290.325 293.488C290.358 293.528 290.374 293.579 290.37 293.63C290.366 293.676 290.346 293.718 290.313 293.751C290.281 293.783 290.238 293.803 290.193 293.807Z" fill="#020202"/>
<path d="M331.131 284.798C336.464 284.65 341.796 284.564 347.128 284.481L355.125 284.349L359.124 284.295C360.514 284.253 361.905 284.341 363.28 284.557C366.062 285.002 368.732 285.983 371.14 287.445C371.757 287.821 372.289 288.186 372.852 288.552C373.455 288.943 374.033 289.372 374.582 289.837C376.817 291.76 378.417 294.315 379.172 297.165C379.361 297.876 379.495 298.601 379.573 299.332C379.626 299.697 379.63 300.065 379.655 300.433L379.686 301.443L379.883 309.438L380.247 325.429L380.538 341.422C380.739 352.083 380.852 362.746 380.877 373.41L380.84 389.407L380.827 393.406C380.82 394.081 380.833 394.721 380.811 395.424C380.739 399.088 379.292 402.59 376.758 405.236C374.758 407.324 372.167 408.749 369.334 409.322C367.961 409.561 366.567 409.658 365.174 409.613L361.171 409.617L345.166 409.596C334.497 409.571 323.829 409.47 313.161 409.293C302.494 409.092 291.821 408.92 281.155 408.45C270.489 408.003 259.814 407.5 249.167 406.563C246.504 406.353 243.845 406.073 241.183 405.831C238.524 405.598 235.859 405.307 233.191 405.002L229.191 404.553L228.191 404.437L227.691 404.379C227.564 404.363 227.437 404.339 227.313 404.309L226.998 404.231C226.234 404.018 225.495 403.724 224.793 403.354C223.4 402.624 222.163 401.629 221.151 400.425C220.166 399.222 219.403 397.852 218.9 396.38C218.06 393.576 217.805 390.63 218.149 387.723C218.327 385.186 218.342 382.517 218.342 379.886C218.314 374.601 218.121 369.299 217.822 364.005C217.509 358.711 217.121 353.421 216.657 348.134C216.19 342.849 215.574 337.578 214.932 332.312C214.283 327.046 213.533 321.795 212.683 316.558C211.806 311.327 210.874 306.104 209.818 300.907C207.758 290.501 205.143 280.214 201.983 270.088C200.411 265.024 198.666 260.019 196.819 255.048C194.881 250.117 192.892 245.194 190.565 240.428C189.471 238.01 188.193 235.687 187.001 233.315C185.684 230.946 184.593 228.458 183.743 225.884C182.93 223.295 182.426 220.619 182.239 217.911C182.135 216.537 182.269 215.155 182.633 213.825C182.824 213.144 183.159 212.512 183.615 211.971C184.088 211.437 184.7 211.045 185.383 210.84C185.407 210.831 185.432 210.827 185.458 210.828C185.483 210.829 185.508 210.836 185.531 210.847C185.554 210.857 185.575 210.873 185.592 210.892C185.609 210.911 185.622 210.933 185.631 210.957C185.64 210.981 185.643 211.006 185.642 211.032C185.641 211.057 185.634 211.082 185.623 211.105C185.612 211.128 185.597 211.149 185.578 211.166C185.559 211.183 185.537 211.196 185.513 211.204L185.5 211.209C184.915 211.44 184.4 211.817 184.004 212.305C183.608 212.793 183.344 213.376 183.239 213.995C182.981 215.263 182.932 216.564 183.094 217.847C183.403 220.454 184.018 223.016 184.924 225.479C185.871 227.929 187.046 230.285 188.434 232.514C189.768 234.837 191.117 237.157 192.317 239.554C197.262 249.078 201.457 258.973 204.861 269.15C211.603 289.52 216.348 310.498 219.028 331.788C220.382 342.417 221.379 353.092 221.851 363.802C222.088 369.158 222.217 374.518 222.179 379.897C222.145 382.596 222.103 385.263 221.874 388.043C221.803 388.782 221.794 389.307 221.748 389.946C221.704 390.55 221.705 391.157 221.752 391.761C221.798 392.932 221.999 394.092 222.348 395.211C223.011 397.348 224.479 399.143 226.441 400.218C226.916 400.477 227.416 400.685 227.934 400.839L228.105 400.884C228.141 400.897 228.178 400.904 228.217 400.906L228.709 400.969L229.694 401.096L233.632 401.616C236.255 401.972 238.883 402.317 241.53 402.607C244.173 402.904 246.811 403.239 249.458 403.505C260.04 404.607 270.646 405.577 281.271 406.333C302.522 407.849 323.819 408.518 345.162 408.341C350.491 408.298 355.819 408.172 361.145 408.026L365.139 407.881C366.413 407.881 367.683 407.751 368.931 407.493C370.129 407.188 371.28 406.72 372.351 406.103C373.4 405.459 374.353 404.672 375.184 403.764C376.826 401.941 377.876 399.663 378.197 397.231C378.28 396.631 378.317 396.026 378.307 395.421C378.307 394.792 378.272 394.099 378.256 393.441L378.133 389.443L377.655 373.454C377.392 362.793 377.211 352.131 377.11 341.468L376.959 325.474L376.883 309.479L376.858 301.481L376.856 300.492C376.842 300.194 376.851 299.894 376.815 299.598C376.769 299.001 376.677 298.41 376.54 297.828C376.263 296.658 375.813 295.536 375.207 294.499C374.591 293.46 373.826 292.517 372.936 291.7C372.478 291.291 371.995 290.911 371.488 290.563L369.878 289.445C367.765 288.05 365.402 287.079 362.919 286.586C361.666 286.34 360.392 286.211 359.115 286.203L355.116 286.075L347.119 285.796C341.788 285.615 336.457 285.431 331.127 285.185C331.077 285.182 331.03 285.161 330.996 285.124C330.961 285.088 330.942 285.039 330.943 284.989C330.943 284.939 330.963 284.891 330.998 284.855C331.033 284.82 331.081 284.799 331.131 284.798L331.131 284.798Z" fill="#020202"/>
<path d="M369.673 305.139L369.774 308.041C369.775 308.062 369.771 308.082 369.764 308.102C369.757 308.121 369.746 308.139 369.732 308.154C369.718 308.169 369.701 308.181 369.682 308.19C369.663 308.199 369.643 308.203 369.622 308.204C369.601 308.205 369.581 308.201 369.561 308.194C369.542 308.187 369.524 308.176 369.509 308.162C369.494 308.148 369.482 308.131 369.473 308.112C369.465 308.093 369.46 308.073 369.459 308.052L369.459 308.045L369.48 305.142C369.48 305.116 369.49 305.092 369.508 305.074C369.526 305.056 369.55 305.046 369.575 305.045C369.6 305.045 369.625 305.055 369.643 305.072C369.662 305.09 369.672 305.114 369.673 305.139Z" fill="#020202"/>
<path d="M369.873 310.943L369.959 313.846C369.96 313.88 369.954 313.915 369.942 313.947C369.93 313.979 369.912 314.009 369.888 314.034C369.864 314.06 369.836 314.08 369.805 314.094C369.773 314.108 369.739 314.116 369.704 314.117C369.67 314.118 369.635 314.112 369.603 314.1C369.571 314.088 369.541 314.069 369.516 314.045C369.491 314.022 369.471 313.993 369.457 313.962C369.443 313.93 369.435 313.896 369.434 313.861L369.434 313.853L369.44 310.949C369.441 310.893 369.463 310.838 369.503 310.798C369.543 310.757 369.597 310.734 369.654 310.733C369.71 310.733 369.765 310.754 369.806 310.793C369.847 310.833 369.871 310.887 369.873 310.943Z" fill="#020202"/>
<path d="M370.045 316.748L370.131 319.651C370.134 319.745 370.1 319.836 370.035 319.904C369.97 319.973 369.881 320.013 369.787 320.016C369.693 320.018 369.602 319.984 369.534 319.919C369.465 319.855 369.425 319.766 369.422 319.672L369.422 319.66L369.428 316.757C369.428 316.676 369.46 316.598 369.517 316.54C369.574 316.483 369.651 316.45 369.732 316.449C369.813 316.448 369.892 316.478 369.95 316.534C370.009 316.59 370.043 316.667 370.045 316.748Z" fill="#020202"/>
<path d="M370.218 322.553L370.304 325.455C370.306 325.573 370.262 325.687 370.181 325.772C370.1 325.858 369.988 325.908 369.87 325.911C369.752 325.915 369.638 325.871 369.552 325.791C369.466 325.711 369.415 325.6 369.41 325.482L369.41 325.468L369.416 322.564C369.417 322.459 369.458 322.359 369.532 322.284C369.606 322.21 369.706 322.167 369.811 322.166C369.916 322.164 370.018 322.204 370.094 322.276C370.17 322.349 370.214 322.448 370.218 322.553H370.218Z" fill="#020202"/>
<path d="M370.378 328.358L370.448 331.261C370.451 331.396 370.4 331.527 370.307 331.625C370.213 331.723 370.085 331.78 369.949 331.784C369.814 331.787 369.682 331.736 369.584 331.643C369.486 331.549 369.429 331.421 369.426 331.285V331.275L369.416 328.371C369.415 328.244 369.465 328.122 369.554 328.032C369.642 327.941 369.763 327.89 369.89 327.888C370.017 327.886 370.14 327.935 370.231 328.023C370.322 328.111 370.375 328.231 370.378 328.358Z" fill="#020202"/>
<path d="M370.517 334.163L370.587 337.066C370.591 337.217 370.534 337.363 370.43 337.473C370.326 337.582 370.182 337.646 370.031 337.649C369.88 337.653 369.733 337.596 369.624 337.492C369.514 337.388 369.451 337.244 369.447 337.093L369.447 337.081L369.437 334.178C369.436 334.036 369.492 333.899 369.591 333.797C369.691 333.695 369.827 333.637 369.97 333.635C370.112 333.633 370.25 333.688 370.352 333.786C370.455 333.885 370.514 334.021 370.517 334.163Z" fill="#020202"/>
<path d="M370.657 339.968L370.726 342.871C370.728 342.954 370.714 343.036 370.684 343.113C370.654 343.19 370.61 343.26 370.553 343.32C370.496 343.38 370.428 343.428 370.352 343.461C370.276 343.495 370.195 343.513 370.112 343.515C370.03 343.517 369.948 343.503 369.871 343.473C369.794 343.443 369.723 343.399 369.663 343.342C369.603 343.285 369.555 343.216 369.522 343.141C369.489 343.065 369.47 342.984 369.468 342.901L369.468 342.888L369.458 339.985C369.457 339.827 369.519 339.675 369.63 339.563C369.74 339.45 369.891 339.385 370.049 339.383C370.207 339.381 370.359 339.441 370.473 339.551C370.587 339.66 370.653 339.81 370.657 339.968Z" fill="#020202"/>
<path d="M370.796 345.774L370.866 348.676C370.868 348.767 370.853 348.857 370.82 348.941C370.788 349.026 370.739 349.103 370.676 349.169C370.614 349.234 370.539 349.287 370.456 349.324C370.374 349.36 370.285 349.38 370.194 349.383C370.103 349.385 370.013 349.369 369.929 349.336C369.845 349.304 369.767 349.255 369.702 349.192C369.637 349.13 369.584 349.055 369.548 348.972C369.511 348.889 369.491 348.8 369.489 348.709L369.489 348.695L369.479 345.792C369.478 345.618 369.546 345.451 369.667 345.328C369.789 345.204 369.955 345.133 370.128 345.131C370.302 345.128 370.469 345.194 370.594 345.315C370.719 345.435 370.792 345.6 370.796 345.774V345.774Z" fill="#020202"/>
<path d="M370.935 351.579L370.991 354.482C370.994 354.676 370.92 354.864 370.785 355.003C370.651 355.143 370.466 355.224 370.272 355.228C370.077 355.231 369.89 355.158 369.75 355.023C369.61 354.889 369.529 354.704 369.524 354.51V354.502L369.5 351.599C369.498 351.409 369.571 351.226 369.704 351.09C369.837 350.955 370.018 350.877 370.208 350.874C370.397 350.872 370.58 350.944 370.717 351.076C370.853 351.208 370.932 351.389 370.935 351.579V351.579Z" fill="#020202"/>
<path d="M371.043 357.385L371.095 360.287C371.098 360.488 371.022 360.682 370.882 360.826C370.743 360.97 370.552 361.053 370.351 361.056C370.151 361.06 369.957 360.984 369.813 360.845C369.668 360.706 369.585 360.515 369.58 360.315V360.308L369.552 357.405C369.551 357.208 369.627 357.018 369.765 356.878C369.902 356.737 370.09 356.656 370.287 356.653C370.484 356.651 370.674 356.726 370.816 356.863C370.958 357 371.039 357.188 371.043 357.385Z" fill="#020202"/>
<path d="M371.147 363.19L371.199 366.093C371.203 366.3 371.124 366.501 370.98 366.65C370.836 366.799 370.639 366.885 370.432 366.889C370.225 366.892 370.024 366.814 369.875 366.67C369.726 366.526 369.64 366.328 369.636 366.121V366.115L369.608 363.212C369.606 363.008 369.685 362.811 369.827 362.666C369.969 362.52 370.163 362.436 370.367 362.433C370.571 362.43 370.767 362.509 370.914 362.651C371.06 362.792 371.144 362.987 371.147 363.19Z" fill="#020202"/>
<path d="M371.251 368.996L371.303 371.899C371.307 372.113 371.226 372.319 371.077 372.472C370.929 372.626 370.726 372.715 370.512 372.718C370.299 372.722 370.092 372.641 369.939 372.493C369.785 372.345 369.696 372.141 369.692 371.928V371.921L369.664 369.018C369.662 368.808 369.743 368.606 369.89 368.455C370.037 368.305 370.237 368.219 370.447 368.216C370.657 368.213 370.859 368.294 371.01 368.44C371.161 368.586 371.248 368.786 371.251 368.996Z" fill="#020202"/>
<path d="M371.356 374.802L371.408 377.705C371.409 377.814 371.39 377.922 371.35 378.023C371.31 378.125 371.251 378.217 371.175 378.296C371.099 378.374 371.009 378.437 370.909 378.48C370.809 378.524 370.702 378.547 370.593 378.549C370.484 378.551 370.376 378.532 370.274 378.492C370.173 378.452 370.08 378.392 370.002 378.317C369.924 378.241 369.861 378.151 369.817 378.051C369.774 377.951 369.751 377.843 369.749 377.734V377.728L369.721 374.824C369.719 374.608 369.803 374.4 369.954 374.246C370.105 374.091 370.311 374.003 370.527 374C370.743 373.997 370.951 374.08 371.107 374.23C371.262 374.38 371.351 374.586 371.356 374.802Z" fill="#020202"/>
<path d="M371.46 380.608L371.512 383.51C371.514 383.623 371.494 383.734 371.453 383.839C371.412 383.944 371.351 384.039 371.273 384.12C371.195 384.201 371.102 384.266 370.999 384.31C370.897 384.355 370.786 384.38 370.674 384.382C370.561 384.384 370.45 384.363 370.345 384.322C370.241 384.281 370.145 384.22 370.065 384.142C369.984 384.064 369.919 383.97 369.875 383.867C369.83 383.764 369.806 383.653 369.805 383.541V383.534L369.776 380.631C369.774 380.408 369.86 380.194 370.016 380.034C370.171 379.875 370.384 379.784 370.607 379.78C370.829 379.777 371.044 379.863 371.204 380.018C371.364 380.173 371.456 380.385 371.46 380.608Z" fill="#020202"/>
<path d="M371.564 386.413L371.6 389.338C371.602 389.451 371.581 389.564 371.538 389.669C371.496 389.775 371.434 389.871 371.354 389.952C371.275 390.034 371.18 390.099 371.076 390.143C370.972 390.188 370.859 390.212 370.746 390.213C370.632 390.215 370.519 390.194 370.414 390.152C370.308 390.109 370.212 390.047 370.131 389.968C370.05 389.888 369.985 389.794 369.94 389.689C369.895 389.585 369.871 389.473 369.87 389.359L369.869 389.319L369.833 386.437C369.831 386.324 369.852 386.211 369.893 386.105C369.935 385.999 369.998 385.903 370.077 385.821C370.156 385.74 370.25 385.674 370.355 385.629C370.459 385.584 370.571 385.56 370.685 385.558C370.799 385.557 370.912 385.577 371.017 385.619C371.123 385.661 371.22 385.723 371.301 385.803C371.383 385.882 371.448 385.976 371.493 386.081C371.538 386.185 371.562 386.297 371.564 386.411V386.413Z" fill="#020202"/>
<path d="M371.179 392.419C370.913 393.423 370.524 394.391 370.02 395.3C369.912 395.497 369.73 395.642 369.515 395.705C369.299 395.768 369.068 395.742 368.871 395.634C368.674 395.526 368.529 395.344 368.466 395.128C368.404 394.913 368.429 394.681 368.537 394.485C368.968 393.696 369.299 392.856 369.523 391.986C369.552 391.877 369.601 391.775 369.668 391.685C369.736 391.595 369.82 391.52 369.917 391.462C370.014 391.405 370.121 391.368 370.232 391.352C370.343 391.336 370.457 391.343 370.566 391.371C370.674 391.399 370.777 391.448 370.866 391.515C370.956 391.583 371.032 391.667 371.089 391.764C371.146 391.861 371.184 391.968 371.199 392.079C371.215 392.191 371.209 392.304 371.181 392.413L371.179 392.419Z" fill="#020202"/>
<path d="M368.195 397.809C367.487 398.567 366.689 399.235 365.818 399.799C365.634 399.918 365.411 399.96 365.197 399.914C364.982 399.869 364.795 399.74 364.675 399.557C364.556 399.373 364.514 399.15 364.559 398.935C364.604 398.721 364.733 398.534 364.916 398.414C365.669 397.919 366.359 397.334 366.97 396.672C367.12 396.509 367.329 396.413 367.55 396.405C367.771 396.396 367.987 396.475 368.149 396.625C368.312 396.775 368.409 396.984 368.418 397.205C368.427 397.426 368.349 397.642 368.199 397.805L368.195 397.809Z" fill="#020202"/>
<path d="M363.028 401.149C362.046 401.481 361.027 401.691 359.993 401.774C359.78 401.791 359.568 401.724 359.405 401.585C359.241 401.447 359.139 401.25 359.122 401.036C359.104 400.823 359.171 400.612 359.31 400.448C359.448 400.285 359.645 400.183 359.859 400.165C360.759 400.087 361.645 399.898 362.499 399.603C362.6 399.568 362.708 399.553 362.815 399.559C362.922 399.566 363.027 399.593 363.123 399.64C363.22 399.687 363.306 399.752 363.378 399.832C363.449 399.912 363.504 400.006 363.539 400.107C363.574 400.209 363.589 400.316 363.582 400.423C363.576 400.53 363.549 400.635 363.502 400.732C363.455 400.828 363.389 400.914 363.309 400.986C363.229 401.057 363.135 401.112 363.034 401.147L363.028 401.149Z" fill="#020202"/>
<path d="M357.043 401.849L354.14 401.87C353.938 401.872 353.743 401.793 353.598 401.651C353.453 401.51 353.37 401.317 353.367 401.114C353.364 400.912 353.44 400.716 353.581 400.57C353.721 400.424 353.913 400.339 354.116 400.334L357.013 400.254C357.224 400.248 357.43 400.326 357.584 400.471C357.738 400.615 357.828 400.816 357.834 401.027C357.841 401.238 357.763 401.444 357.618 401.598C357.473 401.752 357.273 401.842 357.062 401.848L357.043 401.849Z" fill="#020202"/>
<path d="M351.239 401.882L348.335 401.886C348.149 401.886 347.97 401.813 347.837 401.682C347.705 401.551 347.629 401.373 347.627 401.186C347.625 401 347.697 400.82 347.827 400.686C347.957 400.553 348.134 400.476 348.32 400.472L351.219 400.407C351.316 400.404 351.413 400.421 351.503 400.456C351.594 400.49 351.676 400.543 351.747 400.609C351.817 400.676 351.874 400.756 351.913 400.845C351.952 400.933 351.974 401.029 351.976 401.126C351.979 401.223 351.962 401.319 351.927 401.41C351.892 401.5 351.84 401.583 351.773 401.653C351.706 401.723 351.626 401.78 351.537 401.819C351.449 401.858 351.353 401.88 351.256 401.882L351.239 401.882Z" fill="#020202"/>
<path d="M345.434 401.881L342.532 401.869C342.361 401.868 342.198 401.8 342.078 401.68C341.958 401.56 341.89 401.397 341.889 401.227C341.888 401.057 341.954 400.893 342.073 400.771C342.193 400.65 342.355 400.58 342.525 400.578L345.424 400.529C345.603 400.526 345.776 400.594 345.905 400.718C346.034 400.842 346.108 401.013 346.112 401.192C346.115 401.371 346.048 401.544 345.924 401.673C345.8 401.803 345.629 401.877 345.45 401.881L345.434 401.881Z" fill="#020202"/>
<path d="M339.628 401.849L336.724 401.821C336.57 401.82 336.423 401.757 336.315 401.648C336.207 401.539 336.146 401.391 336.146 401.237C336.146 401.083 336.207 400.935 336.315 400.826C336.424 400.717 336.571 400.655 336.725 400.653L339.625 400.619C339.707 400.617 339.788 400.631 339.864 400.661C339.939 400.69 340.009 400.734 340.067 400.791C340.126 400.847 340.173 400.914 340.205 400.989C340.238 401.064 340.255 401.144 340.256 401.225C340.257 401.307 340.242 401.387 340.212 401.463C340.182 401.539 340.137 401.607 340.08 401.665C340.023 401.723 339.955 401.769 339.88 401.801C339.805 401.833 339.724 401.849 339.643 401.849H339.628Z" fill="#020202"/>
<path d="M333.823 401.784L330.921 401.74C330.784 401.738 330.653 401.682 330.557 401.584C330.461 401.486 330.408 401.354 330.408 401.217C330.409 401.08 330.464 400.948 330.561 400.851C330.658 400.755 330.789 400.7 330.927 400.699L333.826 400.68C333.899 400.679 333.971 400.693 334.038 400.72C334.106 400.747 334.167 400.787 334.219 400.838C334.271 400.889 334.312 400.949 334.341 401.016C334.369 401.083 334.384 401.155 334.385 401.227C334.385 401.3 334.372 401.372 334.345 401.439C334.317 401.506 334.277 401.568 334.226 401.62C334.175 401.671 334.115 401.713 334.048 401.741C333.981 401.769 333.909 401.784 333.836 401.784L333.823 401.784Z" fill="#020202"/>
<path d="M328.018 401.688L325.115 401.628C324.995 401.625 324.881 401.574 324.798 401.488C324.715 401.402 324.669 401.286 324.67 401.166C324.672 401.046 324.72 400.932 324.805 400.847C324.89 400.762 325.005 400.715 325.125 400.714L328.026 400.711C328.156 400.71 328.28 400.761 328.372 400.852C328.464 400.944 328.516 401.068 328.517 401.197C328.517 401.327 328.466 401.452 328.375 401.544C328.284 401.636 328.159 401.688 328.03 401.688L328.018 401.688Z" fill="#020202"/>
<path d="M322.211 401.56L319.312 401.484C319.208 401.481 319.11 401.438 319.038 401.363C318.966 401.288 318.927 401.188 318.929 401.084C318.93 400.981 318.973 400.882 319.047 400.809C319.121 400.737 319.221 400.697 319.325 400.697L322.223 400.71C322.336 400.71 322.444 400.755 322.524 400.835C322.603 400.914 322.648 401.023 322.648 401.136C322.648 401.248 322.603 401.356 322.523 401.436C322.443 401.516 322.335 401.56 322.222 401.56L322.211 401.56Z" fill="#020202"/>
<path d="M316.411 401.415L313.51 401.342C313.414 401.339 313.322 401.299 313.256 401.229C313.19 401.159 313.154 401.066 313.156 400.97C313.158 400.874 313.198 400.783 313.268 400.716C313.337 400.649 313.43 400.613 313.526 400.614L316.426 400.662C316.475 400.663 316.524 400.673 316.569 400.693C316.615 400.712 316.656 400.74 316.691 400.776C316.725 400.811 316.752 400.853 316.771 400.899C316.789 400.945 316.798 400.994 316.797 401.044C316.797 401.093 316.786 401.142 316.767 401.188C316.747 401.233 316.719 401.274 316.683 401.309C316.648 401.343 316.606 401.37 316.56 401.389C316.514 401.407 316.465 401.416 316.415 401.415L316.411 401.415Z" fill="#020202"/>
<path d="M310.608 401.261L307.706 401.171C307.616 401.168 307.531 401.13 307.47 401.065C307.408 400.999 307.375 400.912 307.378 400.823C307.38 400.733 307.418 400.648 307.483 400.586C307.548 400.525 307.635 400.491 307.725 400.493L310.626 400.558C310.672 400.559 310.718 400.569 310.76 400.587C310.802 400.605 310.841 400.632 310.873 400.665C310.905 400.699 310.93 400.738 310.947 400.781C310.964 400.824 310.973 400.87 310.972 400.916C310.971 400.963 310.961 401.008 310.942 401.051C310.924 401.093 310.897 401.131 310.863 401.163C310.83 401.195 310.79 401.22 310.747 401.237C310.704 401.254 310.658 401.262 310.612 401.261L310.608 401.261Z" fill="#020202"/>
<path d="M304.804 401.073L301.902 400.966C301.819 400.963 301.74 400.927 301.683 400.866C301.627 400.805 301.596 400.724 301.599 400.641C301.602 400.558 301.638 400.479 301.699 400.423C301.759 400.366 301.84 400.336 301.923 400.338L304.824 400.42C304.867 400.421 304.909 400.431 304.949 400.448C304.988 400.465 305.024 400.49 305.053 400.521C305.083 400.552 305.106 400.589 305.122 400.629C305.137 400.669 305.144 400.712 305.143 400.755C305.142 400.798 305.133 400.84 305.115 400.879C305.098 400.919 305.073 400.954 305.042 400.983C305.01 401.013 304.974 401.036 304.934 401.051C304.893 401.067 304.851 401.074 304.808 401.073L304.804 401.073Z" fill="#020202"/>
<path d="M299 400.849L296.103 400.728C296.026 400.725 295.953 400.691 295.9 400.634C295.848 400.577 295.82 400.502 295.823 400.424C295.827 400.347 295.86 400.274 295.917 400.222C295.974 400.169 296.049 400.142 296.127 400.145L299.023 400.248C299.103 400.25 299.178 400.284 299.233 400.343C299.287 400.401 299.317 400.479 299.314 400.558C299.311 400.638 299.277 400.714 299.219 400.768C299.161 400.823 299.083 400.852 299.003 400.85L299 400.849Z" fill="#020202"/>
<path d="M293.204 400.615L290.305 400.494C290.264 400.492 290.224 400.482 290.187 400.465C290.15 400.448 290.117 400.424 290.089 400.394C290.062 400.364 290.04 400.328 290.026 400.29C290.012 400.252 290.006 400.211 290.008 400.17C290.009 400.13 290.019 400.09 290.036 400.053C290.053 400.016 290.078 399.983 290.108 399.955C290.138 399.927 290.173 399.906 290.211 399.892C290.249 399.878 290.29 399.872 290.331 399.873L290.334 399.874L293.231 400.014C293.31 400.017 293.385 400.052 293.439 400.111C293.493 400.17 293.522 400.248 293.518 400.328C293.515 400.408 293.48 400.483 293.421 400.537C293.362 400.591 293.284 400.619 293.204 400.615Z" fill="#020202"/>
<path d="M287.405 400.362L284.505 400.221C284.418 400.216 284.336 400.177 284.278 400.113C284.219 400.048 284.189 399.963 284.193 399.876C284.197 399.789 284.236 399.707 284.3 399.648C284.365 399.59 284.45 399.559 284.537 399.563L284.54 399.563L287.437 399.723C287.522 399.728 287.601 399.766 287.657 399.829C287.714 399.891 287.744 399.974 287.739 400.059C287.735 400.143 287.697 400.223 287.635 400.28C287.572 400.336 287.489 400.366 287.405 400.362L287.405 400.362Z" fill="#020202"/>
<path d="M281.605 400.069L278.705 399.907C278.659 399.904 278.615 399.893 278.574 399.873C278.532 399.853 278.496 399.826 278.465 399.791C278.435 399.757 278.411 399.718 278.396 399.675C278.381 399.631 278.374 399.586 278.377 399.54C278.38 399.495 278.391 399.45 278.411 399.409C278.431 399.368 278.458 399.331 278.492 399.3C278.527 399.27 278.566 399.246 278.609 399.231C278.653 399.216 278.698 399.21 278.744 399.212L278.747 399.212L281.643 399.393C281.733 399.399 281.816 399.439 281.875 399.506C281.935 399.573 281.965 399.661 281.96 399.75C281.955 399.84 281.915 399.923 281.848 399.983C281.782 400.043 281.694 400.074 281.605 400.069H281.605Z" fill="#020202"/>
<path d="M275.806 399.734L272.906 399.558C272.807 399.552 272.715 399.507 272.649 399.433C272.583 399.358 272.549 399.261 272.555 399.162C272.561 399.063 272.606 398.97 272.681 398.904C272.755 398.838 272.852 398.804 272.951 398.81L272.958 398.811L275.852 399.021C275.899 399.024 275.944 399.036 275.986 399.057C276.029 399.078 276.066 399.106 276.097 399.142C276.128 399.177 276.152 399.218 276.167 399.262C276.182 399.307 276.188 399.354 276.185 399.401C276.182 399.447 276.17 399.493 276.149 399.535C276.129 399.577 276.1 399.615 276.065 399.646C276.029 399.677 275.988 399.701 275.944 399.716C275.899 399.731 275.852 399.737 275.806 399.734H275.806Z" fill="#020202"/>
<path d="M270.011 399.38L267.11 399.189C267.054 399.185 267 399.17 266.949 399.145C266.899 399.121 266.855 399.086 266.818 399.044C266.743 398.959 266.706 398.848 266.713 398.736C266.72 398.623 266.772 398.518 266.857 398.443C266.942 398.369 267.053 398.331 267.166 398.339L267.175 398.339L270.069 398.581C270.174 398.589 270.272 398.639 270.341 398.719C270.41 398.799 270.444 398.904 270.437 399.009C270.429 399.115 270.38 399.213 270.3 399.282C270.22 399.351 270.116 399.387 270.011 399.38Z" fill="#020202"/>
<path d="M264.212 398.986L261.314 398.77C261.252 398.766 261.19 398.749 261.134 398.721C261.078 398.693 261.028 398.654 260.987 398.607C260.946 398.559 260.915 398.504 260.895 398.444C260.875 398.385 260.867 398.322 260.872 398.259C260.877 398.197 260.894 398.136 260.922 398.08C260.95 398.024 260.989 397.974 261.037 397.933C261.085 397.892 261.14 397.861 261.2 397.841C261.259 397.822 261.322 397.814 261.385 397.819L261.395 397.82L264.285 398.086C264.403 398.096 264.513 398.153 264.59 398.244C264.667 398.335 264.705 398.453 264.696 398.572C264.686 398.691 264.63 398.801 264.539 398.879C264.448 398.956 264.331 398.995 264.212 398.986Z" fill="#020202"/>
<path d="M258.418 398.542L255.522 398.301C255.382 398.289 255.253 398.222 255.163 398.116C255.072 398.009 255.028 397.87 255.04 397.731C255.051 397.591 255.118 397.462 255.225 397.371C255.332 397.281 255.47 397.237 255.61 397.248L255.621 397.249L258.508 397.541C258.64 397.554 258.762 397.618 258.847 397.721C258.931 397.823 258.972 397.954 258.96 398.087C258.949 398.219 258.885 398.341 258.783 398.426C258.681 398.512 258.55 398.553 258.418 398.542Z" fill="#020202"/>
<path d="M252.627 398.049L249.732 397.783C249.578 397.769 249.435 397.694 249.335 397.574C249.236 397.455 249.188 397.3 249.202 397.145C249.216 396.991 249.291 396.848 249.411 396.748C249.531 396.649 249.685 396.601 249.84 396.615L249.854 396.617L252.737 396.94C252.883 396.956 253.017 397.029 253.11 397.143C253.202 397.257 253.246 397.403 253.231 397.549C253.217 397.695 253.145 397.83 253.032 397.924C252.919 398.017 252.773 398.062 252.627 398.049Z" fill="#020202"/>
<path d="M246.839 397.503L243.948 397.207C243.777 397.189 243.621 397.105 243.513 396.972C243.405 396.839 243.354 396.669 243.371 396.499C243.389 396.329 243.473 396.172 243.606 396.064C243.739 395.956 243.909 395.905 244.079 395.923L244.096 395.925L246.974 396.278C247.135 396.297 247.283 396.379 247.384 396.506C247.485 396.634 247.532 396.796 247.514 396.957C247.496 397.119 247.415 397.267 247.289 397.369C247.163 397.471 247.001 397.519 246.839 397.503V397.503Z" fill="#020202"/>
<path d="M241.057 396.895L238.164 396.565C238.072 396.555 237.983 396.527 237.902 396.482C237.821 396.437 237.749 396.377 237.691 396.305C237.633 396.232 237.59 396.149 237.565 396.06C237.539 395.971 237.531 395.878 237.542 395.786C237.552 395.694 237.581 395.605 237.626 395.523C237.671 395.442 237.731 395.371 237.804 395.314C237.877 395.256 237.96 395.213 238.049 395.188C238.138 395.163 238.232 395.155 238.324 395.166L238.342 395.168L241.219 395.555C241.396 395.578 241.557 395.669 241.666 395.81C241.776 395.95 241.825 396.128 241.803 396.305C241.782 396.482 241.692 396.643 241.552 396.754C241.412 396.864 241.234 396.915 241.057 396.895Z" fill="#020202"/>
<path d="M235.159 396.05C234.168 395.7 233.24 395.191 232.412 394.544C232.256 394.421 232.154 394.242 232.129 394.045C232.105 393.848 232.16 393.649 232.282 393.492C232.404 393.335 232.583 393.233 232.78 393.209C232.978 393.184 233.176 393.239 233.333 393.361L233.343 393.369C234.036 393.926 234.815 394.367 235.649 394.675C235.831 394.741 235.979 394.875 236.061 395.05C236.143 395.225 236.153 395.425 236.088 395.606C236.023 395.788 235.889 395.937 235.715 396.02C235.541 396.103 235.341 396.114 235.159 396.05V396.05Z" fill="#020202"/>
<path d="M230.289 392.238C229.719 391.364 229.276 390.414 228.974 389.416C228.944 389.317 228.933 389.213 228.943 389.11C228.952 389.007 228.982 388.907 229.031 388.815C229.079 388.724 229.145 388.643 229.225 388.577C229.304 388.511 229.396 388.461 229.495 388.43C229.594 388.4 229.698 388.389 229.801 388.399C229.904 388.409 230.004 388.439 230.096 388.487C230.187 388.535 230.268 388.601 230.334 388.681C230.4 388.761 230.45 388.853 230.48 388.951L230.483 388.962C230.731 389.822 231.099 390.643 231.577 391.399C231.687 391.57 231.725 391.777 231.682 391.976C231.64 392.174 231.52 392.348 231.35 392.459C231.18 392.57 230.973 392.609 230.774 392.567C230.575 392.526 230.401 392.407 230.289 392.238Z" fill="#020202"/>
<path d="M228.411 386.4C228.332 385.392 228.332 384.379 228.411 383.371C228.428 383.154 228.531 382.952 228.697 382.81C228.862 382.668 229.078 382.598 229.295 382.614C229.513 382.63 229.715 382.731 229.858 382.896C230.002 383.06 230.074 383.275 230.06 383.492L230.059 383.504C229.974 384.426 229.962 385.353 230.021 386.277C230.036 386.49 229.966 386.7 229.826 386.862C229.687 387.023 229.489 387.123 229.276 387.139C229.064 387.155 228.853 387.086 228.691 386.948C228.529 386.809 228.428 386.612 228.411 386.4L228.411 386.4Z" fill="#020202"/>
<path d="M228.588 380.51L228.649 377.634L228.649 377.614C228.655 377.384 228.751 377.167 228.916 377.008C229.082 376.85 229.304 376.764 229.533 376.769C229.762 376.773 229.98 376.869 230.139 377.034C230.298 377.199 230.384 377.421 230.38 377.65L230.38 377.662L230.279 380.582C230.271 380.804 230.175 381.015 230.012 381.167C229.849 381.32 229.633 381.402 229.41 381.396C229.188 381.39 228.976 381.296 228.822 381.135C228.668 380.974 228.584 380.758 228.588 380.535L228.588 380.51Z" fill="#020202"/>
<path d="M228.656 374.75L228.622 371.862L228.622 371.85C228.62 371.733 228.642 371.617 228.685 371.509C228.729 371.401 228.793 371.302 228.875 371.218C228.956 371.134 229.054 371.068 229.161 371.022C229.269 370.976 229.384 370.951 229.501 370.95C229.618 370.949 229.734 370.97 229.842 371.014C229.951 371.057 230.05 371.122 230.133 371.203C230.217 371.285 230.283 371.382 230.329 371.49C230.375 371.597 230.4 371.713 230.401 371.829L230.401 371.836L230.413 374.748C230.414 374.981 230.323 375.204 230.16 375.369C229.996 375.535 229.774 375.629 229.542 375.631C229.309 375.633 229.085 375.542 228.919 375.38C228.753 375.217 228.658 374.995 228.656 374.762L228.656 374.75Z" fill="#020202"/>
<path d="M228.553 368.972L228.453 366.084L228.453 366.075C228.445 365.834 228.533 365.599 228.698 365.422C228.863 365.245 229.092 365.141 229.333 365.133C229.575 365.125 229.81 365.213 229.987 365.378C230.164 365.542 230.268 365.771 230.276 366.013L230.276 366.02L230.354 368.926C230.36 369.165 230.272 369.395 230.108 369.568C229.945 369.741 229.719 369.843 229.481 369.85C229.243 369.857 229.012 369.77 228.838 369.607C228.664 369.445 228.562 369.22 228.553 368.982L228.553 368.972Z" fill="#020202"/>
<path d="M228.326 363.194L228.173 360.308L228.173 360.3C228.166 360.177 228.184 360.054 228.224 359.939C228.265 359.823 228.329 359.716 228.411 359.625C228.493 359.534 228.592 359.459 228.703 359.406C228.813 359.353 228.934 359.323 229.056 359.316C229.179 359.31 229.301 359.327 229.417 359.368C229.533 359.409 229.639 359.473 229.731 359.555C229.822 359.637 229.896 359.736 229.949 359.847C230.002 359.958 230.032 360.078 230.038 360.201L230.039 360.208L230.17 363.112C230.182 363.356 230.096 363.595 229.932 363.776C229.767 363.957 229.538 364.065 229.294 364.077C229.05 364.089 228.811 364.004 228.63 363.84C228.448 363.676 228.339 363.447 228.327 363.203L228.326 363.194Z" fill="#020202"/>
<path d="M227.996 357.421L227.794 354.534L227.794 354.526C227.777 354.273 227.861 354.024 228.027 353.833C228.193 353.642 228.429 353.525 228.681 353.508C228.934 353.49 229.183 353.573 229.375 353.739C229.566 353.905 229.683 354.14 229.702 354.393L229.702 354.4L229.883 357.304C229.898 357.554 229.814 357.799 229.649 357.987C229.484 358.175 229.251 358.29 229.002 358.306C228.752 358.323 228.506 358.24 228.317 358.075C228.129 357.911 228.013 357.678 227.996 357.429L227.996 357.421Z" fill="#020202"/>
<path d="M227.57 351.651L227.323 348.769L227.322 348.762C227.311 348.634 227.326 348.505 227.365 348.382C227.404 348.26 227.466 348.146 227.549 348.048C227.716 347.85 227.955 347.726 228.214 347.703C228.472 347.681 228.729 347.763 228.928 347.93C229.126 348.097 229.25 348.336 229.272 348.595L229.273 348.602L229.499 351.501C229.519 351.756 229.437 352.009 229.271 352.204C229.105 352.399 228.869 352.52 228.614 352.541C228.358 352.562 228.105 352.481 227.91 352.316C227.714 352.15 227.592 351.914 227.571 351.659L227.57 351.651Z" fill="#020202"/>
<path d="M227.054 345.888L226.762 343.009L226.761 343.001C226.748 342.87 226.761 342.738 226.798 342.612C226.836 342.487 226.898 342.369 226.981 342.268C227.065 342.166 227.167 342.081 227.283 342.019C227.398 341.957 227.525 341.918 227.656 341.905C227.787 341.892 227.919 341.904 228.044 341.942C228.17 341.98 228.288 342.042 228.389 342.125C228.491 342.208 228.576 342.31 228.638 342.426C228.7 342.542 228.739 342.669 228.752 342.799L228.753 342.807L229.024 345.704C229.049 345.965 228.969 346.224 228.802 346.426C228.636 346.628 228.396 346.756 228.135 346.781C227.875 346.807 227.615 346.728 227.412 346.562C227.209 346.396 227.081 346.157 227.055 345.896L227.054 345.888Z" fill="#020202"/>
<path d="M226.448 340.131L226.113 337.26L226.112 337.252C226.08 336.983 226.157 336.712 226.325 336.499C226.494 336.287 226.74 336.149 227.009 336.118C227.278 336.086 227.549 336.163 227.762 336.331C227.975 336.5 228.112 336.745 228.143 337.015L228.144 337.022L228.46 339.912C228.489 340.178 228.411 340.444 228.244 340.653C228.077 340.862 227.834 340.997 227.568 341.027C227.302 341.057 227.035 340.98 226.825 340.814C226.615 340.648 226.48 340.405 226.449 340.139L226.448 340.131Z" fill="#020202"/>
<path d="M225.762 334.389L225.397 331.519L225.396 331.512C225.362 331.243 225.435 330.971 225.601 330.757C225.767 330.542 226.011 330.402 226.279 330.367C226.548 330.333 226.82 330.407 227.034 330.572C227.249 330.738 227.389 330.982 227.423 331.251L227.799 334.135C227.817 334.269 227.809 334.406 227.774 334.536C227.74 334.667 227.679 334.79 227.597 334.897C227.515 335.005 227.412 335.095 227.295 335.163C227.178 335.23 227.049 335.274 226.915 335.291C226.781 335.309 226.644 335.3 226.514 335.264C226.383 335.229 226.261 335.168 226.154 335.085C226.047 335.002 225.957 334.899 225.891 334.782C225.824 334.664 225.781 334.534 225.764 334.4L225.763 334.397L225.762 334.389Z" fill="#020202"/>
<path d="M225.01 328.652L224.599 325.787L224.598 325.779C224.559 325.513 224.628 325.243 224.789 325.027C224.95 324.812 225.19 324.669 225.456 324.631C225.722 324.592 225.992 324.661 226.207 324.822C226.423 324.983 226.565 325.223 226.604 325.489L227.025 328.368C227.044 328.5 227.037 328.635 227.005 328.765C226.972 328.894 226.914 329.016 226.834 329.123C226.754 329.231 226.654 329.321 226.539 329.389C226.425 329.458 226.298 329.503 226.165 329.522C226.033 329.542 225.898 329.535 225.769 329.502C225.639 329.469 225.517 329.412 225.41 329.332C225.303 329.252 225.213 329.152 225.144 329.037C225.076 328.922 225.031 328.795 225.011 328.663L225.011 328.66L225.01 328.652Z" fill="#020202"/>
<path d="M224.165 322.925L223.708 320.067L223.707 320.059C223.666 319.796 223.73 319.528 223.886 319.313C224.042 319.098 224.277 318.954 224.539 318.911C224.802 318.869 225.07 318.932 225.286 319.087C225.502 319.242 225.647 319.476 225.691 319.739L226.159 322.612C226.18 322.743 226.176 322.876 226.145 323.005C226.115 323.134 226.059 323.256 225.982 323.364C225.905 323.471 225.807 323.562 225.694 323.632C225.581 323.702 225.456 323.749 225.325 323.77C225.195 323.791 225.061 323.787 224.932 323.756C224.803 323.726 224.681 323.671 224.574 323.593C224.466 323.516 224.375 323.418 224.305 323.305C224.235 323.193 224.188 323.067 224.167 322.936L224.167 322.934L224.165 322.925Z" fill="#020202"/>
<path d="M223.227 317.213L222.723 314.367L222.721 314.358C222.675 314.098 222.734 313.831 222.885 313.615C223.036 313.398 223.267 313.251 223.527 313.204C223.787 313.158 224.054 313.216 224.271 313.367C224.488 313.518 224.636 313.748 224.683 314.008L225.199 316.869C225.245 317.13 225.187 317.399 225.035 317.617C224.884 317.834 224.652 317.983 224.391 318.03C224.13 318.077 223.861 318.019 223.643 317.867C223.425 317.716 223.276 317.485 223.229 317.224L223.229 317.221L223.227 317.213Z" fill="#020202"/>
<path d="M222.193 311.524L221.639 308.685L221.637 308.677C221.587 308.42 221.64 308.153 221.786 307.936C221.932 307.719 222.159 307.568 222.415 307.518C222.672 307.467 222.939 307.521 223.156 307.666C223.374 307.812 223.524 308.038 223.575 308.295L224.142 311.149C224.167 311.277 224.167 311.409 224.142 311.537C224.116 311.664 224.066 311.786 223.993 311.894C223.921 312.002 223.828 312.095 223.719 312.168C223.611 312.24 223.49 312.29 223.362 312.316C223.234 312.341 223.102 312.341 222.975 312.316C222.847 312.29 222.725 312.24 222.617 312.167C222.509 312.095 222.416 312.002 222.343 311.893C222.271 311.785 222.221 311.663 222.195 311.536L222.195 311.533L222.193 311.524Z" fill="#020202"/>
<path d="M221.058 305.851L220.451 303.022L220.449 303.013C220.395 302.759 220.444 302.495 220.585 302.277C220.726 302.06 220.947 301.907 221.2 301.852C221.454 301.797 221.718 301.845 221.937 301.985C222.155 302.125 222.308 302.346 222.364 302.599L222.983 305.445C223.01 305.571 223.013 305.701 222.99 305.828C222.967 305.955 222.919 306.077 222.849 306.186C222.779 306.294 222.689 306.388 222.583 306.462C222.477 306.535 222.357 306.587 222.231 306.615C222.105 306.642 221.974 306.645 221.847 306.622C221.72 306.599 221.599 306.551 221.49 306.481C221.381 306.411 221.287 306.321 221.214 306.215C221.14 306.109 221.088 305.989 221.061 305.863L221.06 305.86L221.058 305.851Z" fill="#020202"/>
<path d="M219.817 300.199L219.156 297.382L219.154 297.372C219.095 297.122 219.139 296.859 219.274 296.64C219.409 296.422 219.626 296.266 219.876 296.207C220.126 296.147 220.39 296.19 220.608 296.325C220.827 296.46 220.984 296.676 221.044 296.926L221.718 299.76C221.777 300.011 221.734 300.276 221.599 300.496C221.463 300.715 221.246 300.873 220.994 300.932C220.743 300.992 220.478 300.95 220.258 300.814C220.038 300.679 219.881 300.462 219.82 300.211L219.82 300.208L219.817 300.199Z" fill="#020202"/>
<path d="M218.471 294.571L217.768 291.765L217.765 291.755C217.704 291.514 217.742 291.258 217.869 291.044C217.996 290.83 218.203 290.676 218.444 290.613C218.685 290.551 218.941 290.587 219.155 290.713C219.37 290.838 219.526 291.044 219.59 291.285L220.337 294.1C220.402 294.346 220.366 294.609 220.238 294.829C220.11 295.05 219.9 295.21 219.653 295.275C219.407 295.341 219.144 295.306 218.924 295.178C218.703 295.05 218.542 294.839 218.477 294.593L218.475 294.585L218.471 294.571Z" fill="#020202"/>
<path d="M217.034 288.966L216.27 286.176L216.268 286.166C216.205 285.936 216.235 285.691 216.352 285.483C216.47 285.275 216.664 285.123 216.894 285.058C217.123 284.994 217.369 285.023 217.577 285.139C217.786 285.255 217.94 285.448 218.006 285.677L218.813 288.477C218.847 288.593 218.857 288.715 218.844 288.835C218.83 288.956 218.793 289.072 218.735 289.178C218.676 289.285 218.597 289.378 218.502 289.454C218.408 289.529 218.299 289.585 218.183 289.619C218.066 289.653 217.944 289.663 217.824 289.649C217.703 289.636 217.587 289.599 217.481 289.54C217.375 289.482 217.281 289.403 217.206 289.308C217.13 289.213 217.074 289.105 217.04 288.988L217.038 288.981L217.034 288.966Z" fill="#020202"/>
<path d="M215.475 283.394L214.647 280.622L214.644 280.612C214.579 280.394 214.602 280.159 214.71 279.958C214.818 279.757 215 279.607 215.218 279.54C215.436 279.473 215.672 279.495 215.873 279.602C216.075 279.708 216.226 279.889 216.295 280.107L217.166 282.887C217.237 283.111 217.215 283.353 217.107 283.56C216.998 283.768 216.812 283.924 216.588 283.994C216.365 284.064 216.122 284.043 215.915 283.934C215.707 283.826 215.551 283.639 215.481 283.416L215.479 283.409L215.475 283.394Z" fill="#020202"/>
<path d="M213.785 277.861L212.889 275.11L212.886 275.1C212.819 274.893 212.836 274.668 212.934 274.474C213.031 274.279 213.202 274.132 213.409 274.063C213.615 273.994 213.84 274.01 214.035 274.107C214.23 274.203 214.379 274.373 214.449 274.579L215.389 277.337C215.425 277.442 215.439 277.553 215.432 277.664C215.425 277.774 215.396 277.882 215.348 277.981C215.299 278.081 215.231 278.17 215.148 278.243C215.064 278.316 214.968 278.372 214.863 278.408C214.758 278.443 214.647 278.458 214.537 278.451C214.426 278.444 214.318 278.415 214.219 278.366C214.119 278.317 214.03 278.25 213.957 278.166C213.884 278.083 213.828 277.986 213.792 277.882L213.79 277.875L213.785 277.861Z" fill="#020202"/>
<path d="M211.958 272.371L210.99 269.646L210.986 269.636C210.951 269.539 210.935 269.436 210.94 269.333C210.944 269.23 210.969 269.129 211.013 269.036C211.101 268.848 211.26 268.702 211.456 268.631C211.651 268.56 211.867 268.57 212.055 268.658C212.243 268.746 212.389 268.905 212.46 269.101L213.473 271.833C213.546 272.033 213.538 272.254 213.448 272.447C213.359 272.64 213.197 272.79 212.998 272.864C212.798 272.938 212.577 272.93 212.384 272.842C212.19 272.753 212.04 272.591 211.965 272.392L211.963 272.386L211.958 272.371Z" fill="#020202"/>
<path d="M209.984 266.934L208.938 264.237L208.934 264.227C208.863 264.044 208.868 263.84 208.947 263.66C209.025 263.48 209.172 263.338 209.355 263.266C209.538 263.194 209.741 263.196 209.922 263.274C210.103 263.351 210.245 263.497 210.319 263.679L211.409 266.382C211.447 266.475 211.465 266.575 211.464 266.675C211.464 266.776 211.443 266.875 211.404 266.967C211.364 267.06 211.307 267.143 211.236 267.214C211.164 267.284 211.079 267.339 210.986 267.377C210.893 267.414 210.793 267.433 210.693 267.432C210.593 267.431 210.494 267.411 210.401 267.372C210.309 267.332 210.225 267.275 210.155 267.204C210.084 267.132 210.029 267.047 209.991 266.954L209.989 266.948L209.984 266.934Z" fill="#020202"/>
<path d="M207.853 261.556L206.737 258.888L206.733 258.878C206.662 258.71 206.661 258.521 206.729 258.352C206.797 258.183 206.929 258.048 207.097 257.976C207.264 257.903 207.453 257.9 207.622 257.967C207.792 258.033 207.929 258.163 208.003 258.33L209.187 260.993C209.226 261.08 209.247 261.174 209.25 261.269C209.252 261.364 209.236 261.459 209.202 261.548C209.168 261.637 209.117 261.718 209.051 261.787C208.986 261.856 208.907 261.911 208.82 261.95C208.733 261.989 208.64 262.01 208.544 262.012C208.449 262.015 208.355 261.998 208.266 261.964C208.177 261.93 208.096 261.879 208.027 261.813C207.958 261.747 207.902 261.669 207.864 261.582L207.859 261.57L207.853 261.556Z" fill="#020202"/>
<path d="M205.577 256.239L204.373 253.609L204.368 253.599C204.299 253.449 204.292 253.278 204.349 253.123C204.406 252.968 204.521 252.841 204.671 252.771C204.82 252.7 204.991 252.692 205.147 252.747C205.302 252.802 205.43 252.916 205.502 253.064L206.775 255.686C206.813 255.764 206.835 255.849 206.84 255.935C206.845 256.022 206.833 256.108 206.805 256.19C206.776 256.272 206.732 256.348 206.675 256.412C206.617 256.477 206.547 256.53 206.47 256.568C206.392 256.606 206.307 256.628 206.221 256.633C206.134 256.638 206.047 256.626 205.966 256.598C205.884 256.569 205.808 256.525 205.743 256.467C205.679 256.41 205.626 256.34 205.588 256.262L205.583 256.252L205.577 256.239Z" fill="#020202"/>
<path d="M203.121 251.001L201.822 248.417L201.817 248.407C201.75 248.275 201.739 248.122 201.784 247.981C201.83 247.84 201.93 247.723 202.061 247.655C202.193 247.587 202.346 247.573 202.488 247.617C202.629 247.662 202.747 247.76 202.817 247.891L204.183 250.465C204.221 250.534 204.244 250.61 204.253 250.688C204.261 250.766 204.253 250.845 204.23 250.921C204.208 250.996 204.17 251.066 204.12 251.127C204.071 251.187 204.009 251.238 203.94 251.275C203.87 251.312 203.794 251.334 203.716 251.342C203.638 251.349 203.559 251.341 203.484 251.317C203.409 251.294 203.339 251.256 203.279 251.205C203.218 251.155 203.169 251.093 203.132 251.023L203.128 251.014L203.121 251.001Z" fill="#020202"/>
<path d="M200.471 245.856C200.006 245.019 199.552 244.156 199.106 243.281C199.046 243.164 199.035 243.028 199.075 242.904C199.115 242.779 199.202 242.674 199.318 242.614C199.434 242.553 199.57 242.54 199.695 242.578C199.82 242.617 199.925 242.703 199.988 242.818L199.991 242.824C200.441 243.661 200.905 244.499 201.399 245.341C201.47 245.462 201.49 245.607 201.455 245.743C201.419 245.879 201.331 245.996 201.21 246.067C201.088 246.138 200.944 246.158 200.808 246.123C200.671 246.087 200.555 245.999 200.484 245.878L200.479 245.87L200.471 245.856Z" fill="#020202"/>
<path d="M197.826 240.665L196.587 238.027C196.539 237.924 196.533 237.807 196.571 237.7C196.609 237.593 196.688 237.505 196.79 237.455C196.892 237.406 197.009 237.399 197.117 237.435C197.224 237.472 197.313 237.549 197.364 237.651L197.367 237.657L198.662 240.253L198.665 240.259C198.692 240.314 198.708 240.373 198.713 240.434C198.717 240.495 198.709 240.557 198.69 240.615C198.671 240.673 198.64 240.727 198.6 240.773C198.56 240.819 198.511 240.857 198.456 240.884C198.401 240.912 198.341 240.928 198.28 240.932C198.219 240.936 198.158 240.929 198.1 240.909C198.042 240.89 197.988 240.859 197.942 240.819C197.896 240.778 197.858 240.729 197.831 240.675L197.826 240.665Z" fill="#020202"/>
<path d="M195.399 235.371L194.251 232.694C194.216 232.613 194.215 232.521 194.247 232.438C194.279 232.356 194.343 232.289 194.424 232.253C194.504 232.216 194.596 232.213 194.679 232.244C194.762 232.275 194.83 232.337 194.868 232.417L194.87 232.423L196.099 235.051L196.102 235.057C196.123 235.103 196.135 235.152 196.138 235.203C196.14 235.253 196.132 235.304 196.115 235.351C196.098 235.399 196.072 235.443 196.038 235.48C196.003 235.517 195.962 235.548 195.916 235.569C195.871 235.591 195.821 235.603 195.77 235.605C195.72 235.607 195.669 235.599 195.622 235.582C195.574 235.565 195.531 235.538 195.493 235.504C195.456 235.47 195.426 235.429 195.405 235.383L195.399 235.371Z" fill="#020202"/>
<path d="M193.156 229.997L192.129 227.271C192.107 227.211 192.108 227.145 192.134 227.086C192.16 227.028 192.208 226.982 192.268 226.958C192.327 226.934 192.394 226.935 192.453 226.96C192.512 226.985 192.558 227.032 192.583 227.091L192.586 227.099L193.694 229.776L193.697 229.784C193.712 229.819 193.719 229.857 193.719 229.895C193.719 229.933 193.712 229.971 193.697 230.006C193.682 230.042 193.661 230.074 193.634 230.101C193.607 230.128 193.575 230.149 193.54 230.164C193.504 230.178 193.466 230.186 193.428 230.186C193.39 230.186 193.352 230.178 193.317 230.164C193.281 230.149 193.249 230.128 193.222 230.101C193.195 230.074 193.174 230.042 193.159 230.006L193.156 229.997Z" fill="#020202"/>
<path d="M191.209 224.505L190.493 221.668C190.484 221.63 190.49 221.59 190.509 221.556C190.529 221.522 190.562 221.497 190.6 221.487C190.638 221.476 190.678 221.481 190.713 221.501C190.747 221.52 190.772 221.552 190.783 221.59L190.789 221.609L191.585 224.385L191.59 224.402C191.604 224.452 191.598 224.506 191.573 224.552C191.547 224.597 191.505 224.631 191.455 224.645C191.405 224.66 191.351 224.654 191.305 224.629C191.259 224.603 191.225 224.561 191.211 224.511L191.209 224.505Z" fill="#020202"/>
<path d="M190.578 218.726C190.691 218.536 190.869 218.395 191.08 218.329C191.092 218.325 191.105 218.324 191.118 218.325C191.13 218.326 191.143 218.33 191.154 218.336C191.165 218.342 191.175 218.35 191.183 218.36C191.191 218.369 191.198 218.381 191.201 218.393C191.208 218.417 191.206 218.443 191.194 218.466C191.182 218.488 191.162 218.506 191.138 218.514C190.975 218.569 190.839 218.683 190.755 218.833C190.749 218.845 190.74 218.856 190.729 218.864C190.718 218.872 190.706 218.878 190.692 218.882C190.679 218.885 190.665 218.886 190.652 218.884C190.638 218.882 190.625 218.878 190.614 218.871C190.602 218.864 190.592 218.855 190.583 218.844C190.575 218.834 190.569 218.821 190.565 218.808C190.562 218.795 190.561 218.781 190.563 218.768C190.565 218.754 190.569 218.741 190.576 218.729L190.578 218.726Z" fill="#020202"/>
<path d="M280.863 284.536C278.746 285.077 276.588 285.438 274.41 285.616C272.261 285.809 270.112 285.889 267.964 285.871C265.817 285.854 263.67 285.735 261.524 285.503C259.35 285.287 257.198 284.886 255.092 284.304C257.208 283.76 259.367 283.397 261.545 283.221C263.694 283.027 265.843 282.947 267.991 282.969C270.138 282.99 272.285 283.108 274.431 283.341C276.605 283.558 278.756 283.958 280.863 284.536Z" fill="#020202"/>
<path d="M225.343 401.589C225.712 404.613 225.875 407.638 225.996 410.663C226.103 413.688 226.165 416.712 226.052 419.737C225.913 422.762 225.631 425.787 225.56 428.811C225.555 429.567 225.53 430.324 225.541 431.08C225.484 431.8 225.584 432.524 225.834 433.201C226.092 433.841 226.513 434.401 227.054 434.829C227.595 435.256 228.238 435.535 228.92 435.638C229.574 435.723 230.24 435.648 230.859 435.419C231.452 435.183 231.98 434.809 232.399 434.327C232.806 433.858 233.09 433.295 233.226 432.689C233.291 432.392 233.322 432.087 233.319 431.782L233.295 430.651C233.228 427.626 233.147 424.602 233.174 421.577C233.255 415.527 233.498 409.478 234.109 403.429C234.111 403.405 234.123 403.382 234.14 403.366C234.158 403.35 234.182 403.341 234.206 403.341C234.23 403.341 234.253 403.35 234.271 403.366C234.289 403.382 234.3 403.405 234.302 403.429C234.913 409.478 235.156 415.527 235.238 421.577C235.264 424.602 235.183 427.626 235.116 430.651L235.091 431.788C235.08 432.24 235.01 432.689 234.884 433.123C234.521 434.405 233.672 435.494 232.517 436.157C231.363 436.821 229.994 437.007 228.705 436.675C227.9 436.465 227.16 436.058 226.552 435.491C225.943 434.925 225.484 434.216 225.217 433.428C225.089 433.044 225.005 432.646 224.965 432.243C224.939 431.83 224.948 431.457 224.952 431.08C224.962 430.324 224.938 429.567 224.933 428.811C224.861 425.787 224.579 422.762 224.441 419.737C224.328 416.712 224.389 413.688 224.496 410.663C224.617 407.638 224.78 404.613 225.15 401.589C225.152 401.565 225.164 401.543 225.182 401.528C225.2 401.512 225.223 401.503 225.246 401.503C225.27 401.503 225.293 401.512 225.311 401.528C225.329 401.543 225.34 401.565 225.343 401.589Z" fill="#020202"/>
<path d="M363.449 408.363C363.819 410.946 363.982 413.528 364.103 416.11C364.21 418.693 364.271 421.275 364.158 423.858C364.038 426.44 363.726 429.023 363.666 431.605C363.63 432.21 363.733 432.816 363.97 433.374C364.206 433.933 364.568 434.429 365.028 434.824C365.563 435.284 366.213 435.59 366.908 435.708C367.603 435.826 368.318 435.752 368.974 435.494C369.63 435.236 370.204 434.804 370.633 434.244C371.062 433.684 371.33 433.018 371.409 432.317C371.457 431.851 371.411 431.149 371.401 430.511C371.335 427.929 371.253 425.346 371.28 422.764C371.325 417.586 371.638 412.415 372.215 407.269C372.218 407.246 372.229 407.224 372.247 407.208C372.265 407.192 372.288 407.184 372.312 407.184C372.336 407.184 372.359 407.192 372.376 407.208C372.394 407.224 372.406 407.246 372.409 407.269C372.986 412.415 373.298 417.586 373.344 422.764C373.37 425.346 373.289 427.929 373.222 430.511C373.227 431.2 373.188 431.889 373.103 432.573C372.908 433.691 372.341 434.71 371.496 435.466C370.65 436.222 369.574 436.671 368.441 436.74C367.734 436.787 367.024 436.684 366.359 436.437C365.694 436.19 365.089 435.806 364.583 435.308C364.088 434.828 363.696 434.252 363.431 433.615C363.165 432.979 363.032 432.295 363.039 431.605C362.979 429.023 362.666 426.44 362.547 423.858C362.434 421.275 362.495 418.693 362.602 416.11C362.723 413.528 362.886 410.946 363.256 408.363C363.259 408.34 363.271 408.319 363.288 408.303C363.306 408.288 363.329 408.279 363.352 408.279C363.376 408.279 363.399 408.288 363.417 408.303C363.434 408.319 363.446 408.34 363.449 408.363Z" fill="#020202"/>
<path d="M230.281 221.873C230.937 220.796 231.764 219.832 232.731 219.02C233.685 218.194 234.717 217.462 235.812 216.834C238.03 215.613 240.427 214.75 242.914 214.278C245.387 213.771 247.906 213.518 250.431 213.524C251.687 213.579 252.945 213.627 254.2 213.706L257.943 214.14C258.096 214.158 258.239 214.225 258.35 214.331L258.377 214.357C260.381 216.268 262.405 218.157 264.391 220.087L263.674 219.851C267.064 219.589 270.471 220.009 273.695 221.088C276.883 222.125 279.869 223.702 282.524 225.749C283.188 226.249 283.784 226.836 284.415 227.374C284.722 227.653 285.047 227.913 285.338 228.208L286.176 229.127C286.72 229.751 287.32 230.325 287.832 230.972L289.311 232.959C289.551 233.295 289.818 233.612 290.039 233.959L290.678 235.017L291.956 237.132C292.714 238.59 293.41 240.083 294.14 241.559L294.143 241.565L294.149 241.583C294.765 243.336 295.551 245.025 296.496 246.626C296.965 247.41 297.519 248.141 298.148 248.804C298.706 249.455 299.446 249.925 300.273 250.153C300.332 250.164 300.388 250.187 300.439 250.219C300.489 250.252 300.532 250.295 300.566 250.345C300.6 250.394 300.623 250.45 300.636 250.509C300.648 250.568 300.648 250.629 300.637 250.688L300.621 250.748L300.616 250.763C299.504 253.948 298.187 257.058 296.675 260.073C295.168 263.102 293.433 266.012 291.485 268.778C289.514 271.564 287.252 274.132 284.737 276.438C282.149 278.749 279.193 280.611 275.991 281.947C275.821 282.016 275.636 282.036 275.455 282.005C275.274 281.974 275.106 281.893 274.969 281.771L274.954 281.758C271.51 278.695 268.222 275.525 265.058 272.202C261.877 268.904 258.867 265.437 256.013 261.844C254.598 260.036 253.219 258.199 251.92 256.302C250.646 254.387 249.439 252.424 248.356 250.389C247.248 248.36 246.359 246.219 245.703 244.002C244.993 241.79 244.815 239.441 245.184 237.147C245.186 237.135 245.191 237.123 245.198 237.112C245.206 237.102 245.215 237.093 245.225 237.086C245.236 237.079 245.248 237.074 245.26 237.071C245.273 237.069 245.285 237.069 245.298 237.071C245.322 237.077 245.343 237.091 245.357 237.111C245.371 237.131 245.377 237.155 245.375 237.179C245.206 239.429 245.546 241.688 246.37 243.789C247.158 245.898 248.142 247.93 249.307 249.857C251.688 253.702 254.357 257.361 257.292 260.802C260.208 264.268 263.322 267.568 266.491 270.811C269.681 274.028 272.949 277.202 276.309 280.21L275.272 280.02C278.268 278.815 281.044 277.125 283.491 275.018C285.938 272.835 288.157 270.409 290.112 267.776C292.088 265.123 293.875 262.335 295.459 259.432C297.085 256.541 298.513 253.542 299.731 250.457L300.074 251.067C299.079 250.77 298.197 250.177 297.546 249.367C296.909 248.636 296.35 247.841 295.878 246.994C294.931 245.337 294.149 243.592 293.543 241.783L293.552 241.806C292.843 240.347 292.209 238.846 291.439 237.418L290.159 235.347L289.52 234.312C289.301 233.971 289.029 233.668 288.783 233.346L287.276 231.442C286.757 230.823 286.155 230.277 285.591 229.701L284.734 228.847C284.438 228.575 284.109 228.339 283.798 228.083C283.16 227.592 282.56 227.053 281.896 226.603C279.267 224.772 276.345 223.403 273.256 222.555C270.22 221.68 267.054 221.347 263.903 221.57L263.862 221.574C263.739 221.584 263.615 221.568 263.498 221.527C263.381 221.485 263.275 221.42 263.186 221.334C261.19 219.414 259.234 217.454 257.256 215.516L257.69 215.733L254.057 215.242C252.842 215.144 251.623 215.075 250.406 214.998C247.972 214.922 245.537 215.066 243.13 215.429C240.723 215.793 238.38 216.499 236.173 217.525C235.076 218.054 234.032 218.688 233.056 219.418C232.067 220.137 231.189 220.997 230.449 221.97L230.442 221.979C230.428 221.999 230.406 222.013 230.382 222.017C230.357 222.022 230.332 222.017 230.311 222.003C230.291 221.99 230.276 221.968 230.27 221.944C230.265 221.92 230.269 221.895 230.281 221.873L230.281 221.873Z" fill="#020202"/>
<path d="M250.025 227.513C250.61 226.493 251.355 225.573 252.23 224.788C253.103 223.985 254.081 223.304 255.138 222.765C256.204 222.222 257.355 221.866 258.541 221.713C259.716 221.555 260.91 221.645 262.048 221.976C260.913 222.026 259.785 222.186 258.68 222.455C257.603 222.729 256.56 223.123 255.571 223.63C253.565 224.683 251.701 225.988 250.025 227.513Z" fill="#020202"/>
<path d="M277.493 280.169C280.897 284.442 284.722 288.361 288.911 291.867C292.997 295.409 297.725 298.134 302.838 299.895C305.36 300.706 308.014 301.03 310.658 300.849C313.286 300.63 315.844 299.894 318.185 298.683C322.9 296.302 326.533 292.082 329.167 287.445C331.762 282.691 333.22 277.401 333.425 271.989L333.613 255.559L333.618 251.448C333.575 250.057 333.668 248.665 333.896 247.293C334.098 245.915 334.41 244.556 334.83 243.228C335.34 241.937 335.919 240.673 336.565 239.443C337.802 236.988 339.095 234.573 340.267 232.112C341.494 229.723 342.418 227.191 343.017 224.573C343.024 224.536 343.034 224.5 343.046 224.465L343.054 224.446L346.193 216.003L347.708 211.773C347.827 211.494 347.906 211.2 347.94 210.898C347.962 210.642 347.932 210.383 347.85 210.139C347.78 209.915 347.657 209.711 347.492 209.545C347.326 209.378 347.123 209.254 346.9 209.183C346.156 208.905 344.986 209.873 344.185 210.973C343.336 212.138 342.602 213.382 341.992 214.687C340.676 217.487 339.016 220.111 337.05 222.499C336.026 223.741 334.819 224.819 333.471 225.698C332.733 226.169 331.919 226.508 331.065 226.701C330.059 226.933 329.003 226.76 328.124 226.219C327.376 225.626 326.812 224.834 326.494 223.933C326.177 223.033 326.12 222.062 326.33 221.131C326.471 220.3 326.723 219.492 327.081 218.728L327.341 218.186C327.416 218.039 327.484 217.889 327.548 217.737C327.675 217.437 327.78 217.127 327.861 216.812C328.024 216.199 328.079 215.562 328.025 214.931C328.016 214.73 327.969 214.533 327.884 214.351C327.87 214.323 327.93 214.404 327.978 214.401C328.035 214.407 327.998 214.401 327.927 214.419C327.382 214.638 326.888 214.965 326.473 215.38C325.974 215.845 325.525 216.361 325.134 216.92C323.554 219.327 322.46 222.019 321.913 224.845L321.924 224.65L322.241 231.897L322.4 235.52L322.479 237.332C322.525 237.953 322.531 238.577 322.496 239.199C322.134 241.661 321.426 244.06 320.395 246.325C319.466 248.576 318.407 250.761 317.369 252.936L317.361 252.954L317.339 252.991C315.027 256.438 312.726 259.892 310.38 263.317C310.366 263.338 310.344 263.352 310.32 263.357C310.295 263.362 310.27 263.358 310.248 263.344C310.227 263.331 310.212 263.31 310.206 263.286C310.2 263.261 310.204 263.235 310.217 263.214C312.308 259.627 314.445 256.07 316.57 252.504L316.54 252.559C317.509 250.343 318.483 248.144 319.322 245.901C320.223 243.734 320.821 241.454 321.101 239.124C321.11 238.54 321.083 237.956 321.022 237.375L320.903 235.571L320.665 231.961L320.188 224.745C320.184 224.679 320.188 224.613 320.199 224.549C320.48 223.013 320.891 221.505 321.428 220.04C321.956 218.547 322.666 217.125 323.543 215.807C324.009 215.13 324.544 214.503 325.14 213.938C325.785 213.281 326.576 212.785 327.448 212.489C327.794 212.392 328.16 212.389 328.508 212.479C328.908 212.589 329.257 212.833 329.498 213.17C329.806 213.631 329.987 214.164 330.026 214.716C330.114 215.584 330.049 216.461 329.836 217.306C329.734 217.72 329.602 218.125 329.441 218.519C329.361 218.714 329.275 218.907 329.183 219.096L328.96 219.572C328.687 220.175 328.491 220.81 328.376 221.461C328.267 222.051 328.289 222.657 328.44 223.236C328.575 223.732 328.863 224.172 329.262 224.495C329.941 224.989 331.273 224.66 332.391 223.946C333.564 223.177 334.62 222.245 335.527 221.177C337.413 218.94 339.012 216.477 340.288 213.845C340.97 212.435 341.788 211.095 342.73 209.843C343.235 209.167 343.839 208.57 344.522 208.073C344.925 207.757 345.396 207.539 345.898 207.435C346.399 207.331 346.918 207.345 347.414 207.474C347.909 207.632 348.359 207.907 348.725 208.276C349.091 208.644 349.363 209.096 349.517 209.593C349.67 210.065 349.722 210.564 349.672 211.058C349.617 211.504 349.499 211.939 349.321 212.352L347.696 216.573C346.588 219.373 345.485 222.17 344.327 224.948L344.363 224.822C343.657 227.535 342.611 230.148 341.249 232.599C339.982 235.049 338.624 237.434 337.322 239.838C336.661 241.018 336.06 242.23 335.521 243.471C335.094 244.752 334.774 246.066 334.565 247.4C334.326 248.731 334.219 250.082 334.246 251.434L334.198 255.546C334.195 261.036 334.109 266.491 334.286 272.008C334.279 277.607 332.968 283.127 330.455 288.13C329.184 290.641 327.579 292.969 325.685 295.052C323.78 297.17 321.507 298.925 318.976 300.233C316.419 301.521 313.631 302.285 310.774 302.478C307.93 302.635 305.081 302.25 302.381 301.343C296.991 299.601 292.356 296.305 288.224 292.668C286.161 290.834 284.218 288.869 282.409 286.785C280.583 284.726 278.888 282.553 277.335 280.281C277.328 280.27 277.323 280.259 277.321 280.246C277.318 280.234 277.318 280.221 277.321 280.208C277.323 280.196 277.328 280.184 277.335 280.173C277.342 280.163 277.351 280.154 277.362 280.147C277.383 280.134 277.407 280.129 277.432 280.133C277.456 280.137 277.478 280.15 277.493 280.169Z" fill="#020202"/>
<path d="M299.351 252.748C301.23 254.176 302.999 255.736 304.731 257.334C306.47 258.926 308.124 260.606 309.746 262.317C311.357 264.038 312.916 265.81 314.386 267.655C315.871 269.489 317.252 271.404 318.525 273.39C317.714 272.529 316.98 271.614 316.169 270.76C315.4 269.873 314.614 269.002 313.82 268.139C312.226 266.418 310.659 264.676 309.041 262.978L299.351 252.748Z" fill="#020202"/>
<path d="M275.578 222.467C280.802 218.606 286.382 215.253 292.244 212.453C295.172 211.025 298.185 209.775 301.264 208.71C304.354 207.624 307.543 206.845 310.785 206.385C314.008 205.945 317.254 205.698 320.507 205.642C321.319 205.623 322.134 205.627 322.949 205.668L323.559 205.696C323.788 205.711 324.013 205.756 324.23 205.829C324.666 205.982 325.051 206.255 325.339 206.617C325.591 206.934 325.763 207.308 325.839 207.706C325.916 208.104 325.895 208.515 325.778 208.904C325.662 209.292 325.453 209.646 325.169 209.936C324.886 210.226 324.537 210.444 324.152 210.57L323.576 210.762C320.512 211.8 317.44 212.813 314.337 213.763C312.783 214.229 311.225 214.691 309.633 215.066C308.838 215.256 308.035 215.431 307.215 215.576C306.345 215.752 305.456 215.822 304.569 215.785C304.35 215.769 304.146 215.669 303.998 215.506C303.851 215.344 303.772 215.13 303.778 214.911C303.784 214.691 303.874 214.482 304.031 214.328C304.187 214.173 304.397 214.085 304.616 214.081L304.683 214.08L318.525 213.908L318.538 213.908C318.706 213.906 318.872 213.95 319.017 214.034C319.323 214.211 319.6 214.432 319.84 214.691C320.121 214.999 320.318 215.375 320.411 215.781C320.478 216.186 320.44 216.601 320.3 216.986C320.16 217.372 319.924 217.715 319.613 217.982C318.785 218.686 317.835 219.233 316.811 219.594C315.889 219.937 314.949 220.228 313.995 220.467C313.056 220.734 312.114 220.899 311.175 221.119L311.664 220.855C310.589 221.864 309.431 222.781 308.202 223.597C306.98 224.429 305.679 225.138 304.318 225.714C302.921 226.325 301.418 226.656 299.893 226.688C298.314 226.688 296.781 226.148 295.552 225.156L296.221 225.179C294.702 226.1 293.2 227.047 291.666 227.945C290.137 228.85 288.616 229.769 287.072 230.652C287.051 230.664 287.026 230.668 287.002 230.662C286.978 230.656 286.957 230.642 286.944 230.621C286.93 230.601 286.925 230.576 286.929 230.552C286.933 230.527 286.946 230.506 286.965 230.491C288.383 229.416 289.823 228.376 291.255 227.324C292.682 226.264 294.142 225.253 295.584 224.215C295.675 224.15 295.784 224.114 295.896 224.113C296.009 224.112 296.119 224.145 296.211 224.209L296.254 224.239C297.309 224.976 298.585 225.327 299.869 225.234C301.189 225.144 302.478 224.797 303.664 224.213C304.895 223.627 306.065 222.921 307.157 222.106C308.254 221.293 309.297 220.409 310.277 219.459C310.404 219.336 310.56 219.248 310.731 219.204L310.767 219.195C311.665 218.964 312.587 218.785 313.464 218.514C314.341 218.274 315.205 217.991 316.053 217.664C316.816 217.399 317.53 217.009 318.165 216.51C318.432 216.269 318.38 216.179 318.396 216.215C318.408 216.213 318.371 216.154 318.311 216.07C318.226 215.984 318.132 215.907 318.032 215.839L318.525 215.965L304.683 215.792L304.796 214.088C305.523 214.133 306.253 214.098 306.973 213.985C307.748 213.881 308.532 213.746 309.315 213.592C310.879 213.277 312.452 212.946 314.018 212.577C317.151 211.836 320.267 211.011 323.368 210.102L323.948 209.929C324.113 209.881 324.271 209.81 324.417 209.719C324.71 209.533 324.946 209.269 325.096 208.956C325.243 208.638 325.3 208.286 325.261 207.938C325.222 207.59 325.087 207.26 324.873 206.983C324.658 206.707 324.37 206.498 324.041 206.379C323.874 206.326 323.7 206.294 323.525 206.285L322.926 206.267C322.127 206.238 321.325 206.245 320.524 206.277C317.317 206.465 314.129 206.901 310.989 207.582C307.876 208.281 304.816 209.201 301.833 210.333C298.821 211.403 295.85 212.597 292.921 213.918C287.061 216.534 281.319 219.464 275.685 222.628C275.674 222.634 275.662 222.638 275.65 222.64C275.637 222.642 275.624 222.642 275.612 222.639C275.6 222.636 275.588 222.63 275.578 222.623C275.568 222.615 275.559 222.605 275.552 222.595C275.541 222.574 275.537 222.549 275.541 222.526C275.546 222.503 275.559 222.482 275.578 222.467Z" fill="#020202"/>
<path d="M333.669 194.037L325.181 206.918C326.798 209.676 323.188 210.518 323.188 210.518L319.075 215.376C319.075 215.376 320.246 217.322 316.955 218.425L322.172 220.689C322.172 220.689 323.943 215.376 326.633 213.876L324.407 213.17L334.433 196.805L347.982 198.189L337.946 217.467L329.043 214.641C329.164 216.353 328.751 218.06 327.862 219.528L327.301 221.88L334.017 224.048C336.566 220.911 338.947 217.642 341.15 214.254C343.231 210.702 345.098 207.886 346.434 208.253L353.924 195.421L333.669 194.037ZM322.201 217.409C321.825 217.395 321.468 217.236 321.207 216.966C320.946 216.695 320.8 216.333 320.8 215.957C320.8 215.581 320.946 215.219 321.207 214.948C321.468 214.677 321.825 214.519 322.201 214.505C322.577 214.519 322.933 214.677 323.194 214.948C323.456 215.219 323.602 215.581 323.602 215.957C323.602 216.333 323.456 216.695 323.194 216.966C322.933 217.236 322.577 217.395 322.201 217.409V217.409ZM334.046 221.357C333.67 221.344 333.314 221.185 333.053 220.914C332.792 220.643 332.646 220.282 332.646 219.906C332.646 219.529 332.792 219.168 333.053 218.897C333.314 218.626 333.67 218.467 334.046 218.454C334.422 218.467 334.779 218.626 335.04 218.897C335.301 219.167 335.448 219.529 335.448 219.906C335.448 220.282 335.301 220.644 335.04 220.914C334.779 221.185 334.422 221.344 334.046 221.357V221.357Z" fill="#020202"/>
<path d="M282.42 218.422C284.186 219.681 285.842 221.086 287.372 222.623C288.932 224.129 290.361 225.765 291.644 227.513C289.877 226.256 288.221 224.85 286.693 223.312C285.134 221.804 283.705 220.169 282.42 218.422Z" fill="#020202"/>
<path d="M464.386 325.277C459.634 322.905 423.807 254.978 423.807 254.978C418.107 244.458 410.645 239.232 403.542 236.812C398.691 235.216 393.54 234.747 388.48 235.441C383.421 236.136 378.586 237.975 374.344 240.819L333.737 267.597C334.366 279.975 331.288 284.62 331.288 284.62L365.547 286.159C378.786 289.856 378.264 300.56 378.264 300.56L379.348 379.385C401.335 390.059 428.549 379.385 428.549 379.385L424.514 357.31L420.594 335.719C419.249 328.538 417.904 321.367 416.326 314.244C415.581 310.673 414.729 307.131 413.82 303.598C412.929 300.076 411.942 296.563 410.81 293.118C409.725 289.66 408.366 286.294 406.745 283.053C405.954 281.435 404.948 279.931 403.755 278.582C403.154 277.921 402.44 277.373 401.645 276.965C401.252 276.748 400.814 276.625 400.365 276.609C399.916 276.592 399.469 276.681 399.061 276.869C399.465 276.63 399.919 276.491 400.387 276.462C400.854 276.434 401.322 276.516 401.752 276.704C402.625 277.058 403.425 277.57 404.113 278.214C405.452 279.51 406.614 280.978 407.568 282.579C409.428 285.773 410.99 289.133 412.233 292.614C414.708 299.541 416.706 306.629 418.213 313.828C419.771 320.999 421.039 328.228 422.085 335.477C423.149 342.726 423.914 350.013 424.514 357.31C443.027 353.99 464.386 325.277 464.386 325.277ZM383.654 378.678C383.278 378.665 382.922 378.506 382.661 378.235C382.399 377.964 382.253 377.603 382.253 377.227C382.253 376.85 382.399 376.489 382.661 376.218C382.922 375.947 383.278 375.788 383.654 375.775C384.03 375.788 384.386 375.947 384.648 376.218C384.909 376.489 385.055 376.85 385.055 377.227C385.055 377.603 384.909 377.964 384.648 378.235C384.386 378.506 384.03 378.665 383.654 378.678ZM390.622 380.536C390.246 380.523 389.89 380.364 389.629 380.093C389.367 379.822 389.221 379.461 389.221 379.085C389.221 378.708 389.367 378.347 389.629 378.076C389.89 377.805 390.246 377.646 390.622 377.633C390.998 377.646 391.355 377.805 391.616 378.076C391.878 378.346 392.024 378.708 392.024 379.085C392.024 379.461 391.878 379.823 391.616 380.094C391.355 380.364 390.998 380.523 390.622 380.536V380.536ZM421.978 375.775C422.355 375.787 422.712 375.946 422.974 376.217C423.236 376.487 423.382 376.85 423.382 377.227C423.382 377.603 423.236 377.966 422.974 378.236C422.712 378.507 422.355 378.666 421.978 378.678C421.601 378.666 421.245 378.507 420.983 378.236C420.721 377.965 420.574 377.603 420.574 377.227C420.574 376.85 420.721 376.488 420.983 376.217C421.245 375.946 421.601 375.788 421.978 375.775V375.775ZM414.313 378.097C414.69 378.11 415.047 378.268 415.309 378.539C415.571 378.81 415.718 379.172 415.718 379.549C415.718 379.926 415.571 380.288 415.309 380.559C415.047 380.83 414.69 380.988 414.313 381.001C413.937 380.988 413.58 380.83 413.318 380.559C413.056 380.288 412.91 379.926 412.91 379.549C412.91 379.172 413.056 378.81 413.318 378.539C413.58 378.269 413.937 378.11 414.313 378.097V378.097ZM406.881 379.026C407.257 379.039 407.615 379.197 407.877 379.468C408.139 379.739 408.285 380.101 408.285 380.478C408.285 380.855 408.139 381.217 407.877 381.488C407.615 381.759 407.257 381.917 406.881 381.93C406.504 381.917 406.147 381.759 405.885 381.488C405.624 381.217 405.477 380.855 405.477 380.478C405.477 380.101 405.624 379.739 405.885 379.469C406.147 379.198 406.504 379.039 406.881 379.026V379.026ZM398.751 381.697C398.375 381.684 398.019 381.525 397.758 381.254C397.497 380.984 397.351 380.622 397.351 380.246C397.351 379.869 397.497 379.508 397.758 379.237C398.019 378.966 398.375 378.808 398.751 378.794C399.128 378.807 399.484 378.966 399.746 379.236C400.008 379.507 400.154 379.869 400.154 380.246C400.154 380.622 400.008 380.984 399.746 381.255C399.484 381.526 399.128 381.685 398.751 381.698V381.697ZM460.999 322.586C461.375 322.599 461.732 322.757 461.995 323.028C462.257 323.299 462.403 323.661 462.403 324.038C462.403 324.415 462.257 324.777 461.995 325.048C461.732 325.319 461.375 325.477 460.999 325.489C460.622 325.476 460.266 325.318 460.004 325.047C459.742 324.776 459.596 324.414 459.596 324.038C459.596 323.661 459.742 323.299 460.004 323.029C460.266 322.758 460.622 322.599 460.999 322.586V322.586ZM455.889 328.393C456.265 328.405 456.623 328.564 456.885 328.834C457.147 329.105 457.293 329.467 457.293 329.844C457.293 330.221 457.147 330.583 456.885 330.854C456.623 331.125 456.265 331.284 455.889 331.296C455.512 331.283 455.156 331.124 454.894 330.854C454.632 330.583 454.486 330.221 454.486 329.844C454.486 329.468 454.632 329.106 454.894 328.835C455.156 328.564 455.512 328.406 455.889 328.393V328.393ZM426.391 354.755C426.015 354.741 425.659 354.583 425.398 354.312C425.136 354.041 424.99 353.679 424.99 353.303C424.99 352.927 425.136 352.565 425.398 352.295C425.659 352.024 426.015 351.865 426.391 351.851C426.767 351.864 427.124 352.023 427.386 352.294C427.647 352.565 427.794 352.927 427.794 353.303C427.794 353.68 427.647 354.042 427.386 354.313C427.124 354.583 426.767 354.742 426.391 354.755V354.755ZM432.662 351.967C432.286 351.954 431.93 351.795 431.669 351.525C431.407 351.254 431.261 350.892 431.261 350.516C431.261 350.14 431.407 349.778 431.669 349.507C431.93 349.236 432.286 349.078 432.662 349.064C433.039 349.077 433.395 349.236 433.657 349.507C433.919 349.777 434.065 350.139 434.065 350.516C434.065 350.893 433.919 351.254 433.657 351.525C433.395 351.796 433.039 351.955 432.662 351.968V351.967ZM438.933 348.251C438.557 348.238 438.201 348.079 437.94 347.808C437.679 347.538 437.532 347.176 437.532 346.8C437.532 346.423 437.679 346.062 437.94 345.791C438.201 345.52 438.557 345.361 438.933 345.348C439.31 345.361 439.666 345.519 439.928 345.79C440.19 346.061 440.336 346.423 440.336 346.8C440.336 347.176 440.19 347.538 439.928 347.809C439.666 348.08 439.31 348.239 438.933 348.251V348.251ZM444.74 343.142C444.364 343.128 444.008 342.969 443.747 342.699C443.485 342.428 443.339 342.066 443.339 341.69C443.339 341.314 443.485 340.952 443.747 340.681C444.008 340.41 444.364 340.252 444.74 340.238C445.116 340.251 445.473 340.41 445.735 340.681C445.996 340.951 446.143 341.313 446.143 341.69C446.143 342.067 445.996 342.428 445.735 342.699C445.473 342.97 445.116 343.129 444.74 343.142V343.142ZM450.547 333.967C450.923 333.979 451.28 334.138 451.543 334.409C451.805 334.68 451.951 335.042 451.951 335.419C451.951 335.796 451.805 336.158 451.543 336.429C451.28 336.699 450.923 336.858 450.547 336.87C450.17 336.857 449.814 336.699 449.552 336.428C449.29 336.157 449.144 335.795 449.144 335.419C449.144 335.042 449.29 334.68 449.552 334.409C449.814 334.139 450.17 333.98 450.547 333.967V333.967Z" fill="#020202"/>
<path d="M379.52 397.256C379.786 401.742 379.907 406.237 379.747 410.745C379.717 413.034 379.489 415.316 379.067 417.566C378.998 417.868 378.91 418.166 378.804 418.456L378.587 418.93L378.474 419.164C378.463 419.194 378.451 419.224 378.437 419.252C378.401 419.414 378.4 419.581 378.433 419.743C378.467 419.905 378.535 420.058 378.632 420.192C379.18 421.034 379.905 421.747 380.756 422.28C382.523 423.45 384.531 424.205 386.63 424.491C388.729 424.777 390.866 424.587 392.881 423.933C393.38 423.763 393.869 423.567 394.346 423.345C394.862 423.101 395.392 422.862 395.924 422.642C396.996 422.201 398.101 421.843 399.228 421.572C401.482 421.055 403.801 420.883 406.106 421.06C408.391 421.176 410.651 421.584 412.832 422.273C413.921 422.616 414.981 423.043 416.004 423.549C417.004 424.024 418.037 424.427 419.094 424.754C421.224 425.425 423.393 425.966 425.589 426.373C427.783 426.793 429.991 427.156 432.213 427.397C436.634 427.927 441.098 428.01 445.536 427.646C447.691 427.5 449.809 427.011 451.809 426.197C452.697 425.836 453.458 425.22 453.996 424.427C454.201 424.036 454.324 423.607 454.358 423.167C454.391 422.726 454.335 422.284 454.192 421.866L454.343 422.164C453.913 421.68 453.445 421.23 452.943 420.82C452.429 420.382 451.876 419.98 451.323 419.58C450.188 418.801 449.004 418.096 447.778 417.47C445.298 416.221 442.721 415.176 440.071 414.347C437.403 413.52 434.692 412.841 431.95 412.312C430.582 412.013 429.201 411.842 427.826 411.599C426.372 411.416 424.934 411.118 423.526 410.706C420.711 409.892 418.035 408.654 415.592 407.036C413.14 405.426 411.059 403.313 409.488 400.837C407.916 398.361 406.89 395.579 406.477 392.676C406.071 389.836 406.094 386.951 406.544 384.118C406.548 384.094 406.561 384.071 406.581 384.056C406.601 384.041 406.625 384.034 406.65 384.036C406.675 384.039 406.698 384.051 406.714 384.07C406.73 384.089 406.738 384.113 406.737 384.138C406.534 386.946 406.724 389.768 407.303 392.523C407.857 395.239 408.959 397.813 410.544 400.087C412.137 402.321 414.155 404.22 416.482 405.673C418.822 407.117 421.368 408.196 424.032 408.875C425.357 409.221 426.705 409.474 428.066 409.632C429.486 409.859 430.925 410.019 432.331 410.304C433.741 410.575 435.154 410.834 436.543 411.215C437.945 411.538 439.322 411.965 440.7 412.385C443.457 413.271 446.129 414.401 448.685 415.761C451.338 417.1 453.732 418.9 455.755 421.078C455.82 421.151 455.867 421.238 455.894 421.333L455.906 421.376C456.107 422.028 456.171 422.714 456.094 423.391C456.017 424.068 455.8 424.722 455.457 425.311C454.719 426.376 453.677 427.194 452.467 427.658C450.285 428.493 447.977 428.948 445.642 429.004C441.117 429.155 436.587 428.871 432.115 428.157C427.649 427.548 423.235 426.606 418.91 425.339C417.823 425.006 416.755 424.612 415.712 424.16C414.71 423.699 413.672 423.321 412.608 423.028C410.474 422.472 408.277 422.191 406.071 422.192C403.888 422.132 401.708 422.401 399.606 422.991C398.567 423.305 397.549 423.685 396.558 424.128C396.06 424.35 395.573 424.586 395.082 424.835C394.549 425.101 394.002 425.338 393.444 425.545C391.186 426.34 388.766 426.561 386.401 426.188C384.05 425.823 381.812 424.931 379.854 423.58C378.814 422.893 377.94 421.981 377.299 420.913C377.124 420.595 377.003 420.251 376.939 419.894C376.857 419.471 376.908 419.032 377.087 418.639L377.239 418.351L377.303 418.204L377.441 417.915C377.53 417.681 377.605 417.441 377.664 417.198C378.161 415.054 378.479 412.874 378.616 410.678C378.957 406.227 379.164 401.744 379.327 397.259C379.327 397.247 379.33 397.234 379.335 397.223C379.34 397.211 379.348 397.2 379.357 397.192C379.366 397.183 379.377 397.176 379.389 397.171C379.401 397.167 379.413 397.165 379.426 397.165C379.45 397.166 379.473 397.176 379.49 397.192C379.508 397.209 379.518 397.232 379.52 397.256Z" fill="#020202"/>
<path d="M436.234 352.423C437.171 354.146 438.014 355.916 438.816 357.707C439.616 359.498 440.375 361.312 441.027 363.17C441.697 365.029 442.266 366.924 442.732 368.845C443.244 370.798 443.487 372.812 443.455 374.831C443.439 375.354 443.384 375.876 443.288 376.391C443.244 376.655 443.184 376.917 443.108 377.175L442.987 377.565C442.971 377.623 442.938 377.713 442.934 377.743C442.931 377.77 442.925 377.797 442.917 377.823C442.798 378.284 443.267 379.134 443.849 379.745C445.132 381.045 446.706 382.021 448.441 382.594C450.178 383.203 452.02 383.46 453.857 383.349C455.706 383.219 457.508 382.71 459.151 381.855C460.977 380.987 462.91 380.365 464.899 380.005C466.882 379.698 468.895 379.625 470.895 379.788C472.882 379.914 474.85 380.262 476.76 380.825C477.714 381.108 478.649 381.45 479.56 381.85C480.428 382.283 481.319 382.669 482.229 383.007C485.924 384.224 489.738 385.048 493.607 385.463C497.461 385.957 501.355 386.071 505.232 385.806C507.145 385.674 509.041 385.364 510.895 384.878C511.793 384.629 512.664 384.294 513.496 383.877C514.295 383.507 515.01 382.976 515.595 382.317C516.152 381.712 516.483 380.932 516.531 380.11C516.608 379.271 516.47 378.426 516.128 377.656C515.754 376.853 515.25 376.118 514.636 375.479C514.012 374.777 513.342 374.117 512.631 373.503C509.723 371.043 506.416 369.098 502.853 367.751C501.071 367.052 499.252 366.454 497.403 365.961C495.546 365.462 493.583 364.959 491.716 364.325C487.946 363.079 484.3 361.484 480.826 359.561C477.381 357.607 474.11 355.361 471.049 352.848C467.969 350.368 465.151 347.579 462.639 344.526C460.103 341.492 458.125 338.033 456.796 334.309C456.788 334.285 456.789 334.258 456.801 334.235C456.812 334.212 456.832 334.194 456.856 334.186C456.879 334.178 456.905 334.18 456.927 334.19C456.949 334.2 456.967 334.218 456.977 334.24C458.577 337.782 460.741 341.041 463.384 343.89C466 346.745 468.88 349.346 471.985 351.659C478.095 356.396 484.991 360.02 492.359 362.363C494.201 362.969 496.023 363.454 497.941 363.969C499.871 364.478 501.765 365.117 503.61 365.881C507.352 367.371 510.812 369.488 513.841 372.143C514.599 372.82 515.31 373.546 515.972 374.316C516.701 375.104 517.287 376.013 517.705 377.002C518.128 378.041 518.279 379.17 518.143 380.284C518.078 380.853 517.93 381.409 517.702 381.934C517.45 382.442 517.129 382.913 516.747 383.333C516.01 384.121 515.12 384.75 514.131 385.181C513.196 385.601 512.222 385.928 511.223 386.157C509.273 386.579 507.287 386.815 505.292 386.864C501.354 386.95 497.416 386.708 493.519 386.138C489.619 385.631 485.771 384.782 482.02 383.599C481.095 383.283 480.143 382.877 479.283 382.494C478.393 382.131 477.48 381.829 476.549 381.592C474.681 381.138 472.768 380.894 470.846 380.864C468.94 380.8 467.032 380.957 465.162 381.333C463.318 381.763 461.535 382.425 459.857 383.303C458.043 384.313 456.03 384.916 453.959 385.07C451.889 385.224 449.809 384.924 447.865 384.193C445.884 383.496 444.099 382.334 442.661 380.804C442.285 380.387 441.967 379.923 441.715 379.422C441.4 378.834 441.293 378.156 441.413 377.5L441.489 377.226L441.543 377.053L441.645 376.745C441.711 376.535 441.765 376.321 441.804 376.105C441.895 375.66 441.951 375.209 441.972 374.756C441.948 370.921 441.304 367.116 440.063 363.488C438.914 359.763 437.578 356.098 436.061 352.508C436.05 352.484 436.05 352.458 436.059 352.434C436.068 352.41 436.087 352.391 436.11 352.38C436.132 352.371 436.157 352.37 436.18 352.378C436.203 352.386 436.222 352.402 436.234 352.423Z" fill="#020202"/>
<path d="M279.766 183.285C280.143 183.272 280.499 183.114 280.761 182.843C281.023 182.572 281.169 182.21 281.169 181.834C281.169 181.457 281.023 181.095 280.761 180.824C280.499 180.554 280.143 180.395 279.766 180.382C279.39 180.395 279.034 180.554 278.772 180.824C278.51 181.095 278.364 181.457 278.364 181.834C278.364 182.21 278.51 182.572 278.772 182.843C279.034 183.114 279.39 183.272 279.766 183.285Z" fill="#020202"/>
<path d="M256.741 185.088C257.117 185.075 257.474 184.916 257.736 184.646C257.997 184.375 258.144 184.013 258.144 183.636C258.144 183.26 257.997 182.898 257.736 182.627C257.474 182.356 257.117 182.198 256.741 182.185C256.365 182.198 256.008 182.356 255.747 182.627C255.485 182.898 255.339 183.26 255.339 183.636C255.339 184.013 255.485 184.375 255.747 184.646C256.008 184.916 256.365 185.075 256.741 185.088Z" fill="#020202"/>
<path d="M275.632 193.698C276.305 194.526 276.862 195.271 277.519 195.928C277.839 196.264 278.183 196.575 278.55 196.859C278.915 197.166 279.326 197.405 279.766 197.732C279.227 197.805 278.678 197.73 278.177 197.516C277.668 197.31 277.208 197 276.827 196.604C276.451 196.215 276.148 195.76 275.933 195.263C275.71 194.773 275.607 194.236 275.632 193.698Z" fill="#020202"/>
<path d="M282.42 177.325C281.913 177.446 281.379 177.4 280.901 177.192C280.422 176.983 280.024 176.625 279.766 176.171C280.273 176.039 280.81 176.086 281.286 176.304C281.77 176.505 282.17 176.865 282.42 177.325Z" fill="#020202"/>
<path d="M255.248 186.55C255.743 186.614 256.241 186.649 256.739 186.654C257.196 186.662 257.632 186.591 258.234 186.55C258.089 186.811 257.871 187.023 257.607 187.16C257.34 187.304 257.043 187.379 256.74 187.379C256.44 187.39 256.142 187.318 255.879 187.172C255.616 187.026 255.398 186.811 255.248 186.55Z" fill="#020202"/>
<path d="M276.583 276.717C276.959 276.704 277.316 276.545 277.577 276.274C277.839 276.003 277.985 275.641 277.985 275.265C277.985 274.888 277.839 274.527 277.577 274.256C277.316 273.985 276.959 273.826 276.583 273.813C276.207 273.826 275.85 273.985 275.588 274.256C275.327 274.527 275.181 274.888 275.181 275.265C275.181 275.641 275.327 276.003 275.588 276.274C275.85 276.545 276.207 276.704 276.583 276.717Z" fill="#020202"/>
<path d="M281.46 272.536C281.837 272.523 282.193 272.364 282.455 272.093C282.717 271.822 282.863 271.461 282.863 271.084C282.863 270.708 282.717 270.346 282.455 270.075C282.193 269.804 281.837 269.645 281.46 269.632C281.084 269.645 280.728 269.804 280.466 270.075C280.204 270.346 280.058 270.708 280.058 271.084C280.058 271.461 280.204 271.822 280.466 272.093C280.728 272.364 281.084 272.523 281.46 272.536Z" fill="#020202"/>
<path d="M286.57 267.426C286.947 267.413 287.303 267.254 287.565 266.984C287.826 266.713 287.973 266.351 287.973 265.974C287.973 265.598 287.826 265.236 287.565 264.965C287.303 264.694 286.947 264.536 286.57 264.523C286.194 264.536 285.837 264.694 285.576 264.965C285.314 265.236 285.168 265.598 285.168 265.974C285.168 266.351 285.314 266.713 285.576 266.984C285.837 267.254 286.194 267.413 286.57 267.426Z" fill="#020202"/>
<path d="M290.983 261.619C291.36 261.606 291.716 261.448 291.978 261.177C292.24 260.906 292.386 260.544 292.386 260.168C292.386 259.791 292.24 259.429 291.978 259.159C291.716 258.888 291.36 258.729 290.983 258.716C290.607 258.729 290.25 258.888 289.989 259.159C289.727 259.429 289.581 259.791 289.581 260.168C289.581 260.544 289.727 260.906 289.989 261.177C290.25 261.448 290.607 261.606 290.983 261.619Z" fill="#020202"/>
<path d="M294.7 255.813C295.076 255.8 295.432 255.641 295.694 255.37C295.956 255.099 296.102 254.738 296.102 254.361C296.102 253.985 295.956 253.623 295.694 253.352C295.432 253.081 295.076 252.922 294.7 252.909C294.323 252.922 293.967 253.081 293.705 253.352C293.443 253.623 293.297 253.985 293.297 254.361C293.297 254.738 293.443 255.099 293.705 255.37C293.967 255.641 294.323 255.8 294.7 255.813Z" fill="#020202"/>
<path d="M345.58 159.331H319.958V175.192H329.277L332.769 178.684L336.26 175.192H345.58V159.331Z" stroke="black" stroke-width="0.96777" stroke-miterlimit="10"/>
<path d="M371.202 134.96H345.58V150.821H354.899L358.391 154.313L361.882 150.821H371.202V134.96Z" stroke="black" stroke-width="0.96777" stroke-miterlimit="10"/>
<path d="M342.577 113.75H316.955V129.611H326.275L329.767 133.102L333.258 129.611H342.577V113.75Z" stroke="black" stroke-width="0.96777" stroke-miterlimit="10"/>
</svg>
